<?xml version="1.0" encoding="UTF-8"?>
<svg width="64px" height="64px" viewBox="0 0 64 64" version="1.1" xmlns="http://www.w3.org/2000/svg" xmlns:xlink="http://www.w3.org/1999/xlink">
    <!-- Generator: Sketch 50.2 (55047) - http://www.bohemiancoding.com/sketch -->
    <title>buying</title>
    <desc>Created with Sketch.</desc>
    <defs></defs>
    <g id="Page-1" stroke="none" stroke-width="1" fill="none" fill-rule="evenodd">
        <g id="20943798" transform="translate(-15405.000000, -4238.000000)" fill="#FFFFFF" fill-rule="nonzero">
            <g id="buying" transform="translate(15405.000000, 4238.000000)">
                <path d="M62.125,0.0625 L1.875,0.0625 C0.8395,0.0625 0,0.902 0,1.9375 L0,47.0625 C0,48.098 0.8395,48.9375 1.875,48.9375 L22.625,48.9375 L22.625,57.0625 C22.625,58.785625 21.223125,60.1875 19.5,60.1875 L15.125,60.1875 C14.0895,60.1875 13.25,61.027 13.25,62.0625 C13.25,63.098 14.0895,63.9375 15.125,63.9375 L48.875,63.9375 C49.9105,63.9375 50.75,63.098 50.75,62.0625 C50.75,61.027 49.9105,60.1875 48.875,60.1875 L44.5,60.1875 C42.776875,60.1875 41.375,58.785625 41.375,57.0625 L41.375,48.9375 L62.125,48.9375 C63.1605,48.9375 64,48.098 64,47.0625 L64,1.9375 C64,0.902 63.1605,0.0625 62.125,0.0625 Z M60.25,3.8125 L60.25,37.6875 L3.75,37.6875 L3.75,3.8125 L60.25,3.8125 Z M38.377125,60.1875 L25.622875,60.1875 C26.103625,59.2495 26.375,58.187 26.375,57.0625 L26.375,48.9375 L37.625,48.9375 L37.625,57.0625 C37.625,58.187 37.896375,59.2495 38.377125,60.1875 Z M3.75,45.1875 L3.75,41.4375 L60.25,41.4375 L60.25,45.1875 L3.75,45.1875 Z" id="Shape"></path>
                <path d="M17,11.4395 L19.79525,11.4395 L22.656875,26.781375 C22.822375,27.669 23.597125,28.312625 24.500125,28.312625 L38.60925,28.312625 C39.524875,28.312625 40.306625,27.651375 40.45825,26.748375 L42.349125,15.498375 C42.541,14.357 41.660875,13.312625 40.500125,13.312625 L23.95925,13.312625 L23.196,9.22075 C23.0305,8.333125 22.25575,7.6895 21.35275,7.6895 L17,7.6895 C15.9645,7.6895 15.125,8.529 15.125,9.5645 C15.125,10.6 15.9645,11.4395 17,11.4395 Z M38.283625,17.0625 L37.023,24.5625 L26.057625,24.5625 L24.65875,17.0625 L38.283625,17.0625 Z" id="Shape"></path>
                <circle id="Oval" cx="26.375" cy="32.0625" r="1.875"></circle>
                <circle id="Oval" cx="37.625" cy="32.0625" r="1.875"></circle>
            </g>
        </g>
    </g>
</svg>