<?xml version="1.0" encoding="UTF-8"?>
<svg width="64px" height="56px" viewBox="0 0 64 56" version="1.1" xmlns="http://www.w3.org/2000/svg" xmlns:xlink="http://www.w3.org/1999/xlink">
    <!-- Generator: Sketch 50.2 (55047) - http://www.bohemiancoding.com/sketch -->
    <title>email-marketing</title>
    <desc>Created with Sketch.</desc>
    <defs></defs>
    <g id="Page-1" stroke="none" stroke-width="1" fill="none" fill-rule="evenodd">
        <g id="20943798" transform="translate(-14687.000000, -4244.000000)" fill="#FFFFFF" fill-rule="nonzero">
            <g id="email-marketing" transform="translate(14687.000000, 4244.000000)">
                <path d="M51.6910409,22.1522339 L48.7797271,23.5957895 C48.7797271,0.652226121 48.796694,1.78351657 48.7450448,1.51616374 C48.576499,0.640623782 47.8070019,0.000249512671 46.9083821,0.000249512671 C46.6970448,0.000249512671 2.01930604,-0.000124756335 1.85949318,0.000873294347 C0.817153996,0.00748538012 -2.84217094e-14,0.859446394 -2.84217094e-14,1.87159454 L-2.84217094e-14,35.5558051 C-2.84217094e-14,36.5892865 0.837863548,37.4271501 1.87134503,37.4271501 L22.5808967,37.4271501 L22.5808967,40.0470331 C22.5808967,42.1304639 24.0480312,43.8766784 26.0032125,44.3095828 L24.477692,53.4627057 C24.2875634,54.6029786 25.1683431,55.6416998 26.3235867,55.6416998 L33.8089669,55.6416998 C34.7160702,55.6416998 35.4926784,54.9910955 35.6514932,54.0978402 L37.3419415,44.5889123 L51.6911657,51.7041404 C52.9304951,52.3188148 54.3938869,51.4164522 54.3938869,50.0276647 L54.3938869,23.8288343 C54.3937622,22.4409201 52.9323665,21.5363119 51.6910409,22.1522339 Z M40.6991345,3.74293957 L24.3303548,14.5952437 L8.05202339,3.74293957 L40.6991345,3.74293957 Z M3.74269006,5.36826511 L23.2895127,18.3994386 C23.9166628,18.8174971 24.7334425,18.8186199 25.3615906,18.4020585 L45.037037,5.35753606 L45.037037,25.4516647 L36.9883821,29.4427446 L26.9473684,29.4427446 C24.581614,29.4427446 22.6505107,31.334425 22.5840156,33.68446 L3.74269006,33.68446 L3.74269006,5.36826511 Z M26.9473684,40.6708148 C26.6034152,40.6708148 26.3235867,40.3909864 26.3235867,40.0470331 L26.3235867,33.8092164 C26.3235867,33.4652632 26.6034152,33.1854347 26.9473684,33.1854347 L35.5555556,33.1854347 L35.5555556,40.6708148 L26.9473684,40.6708148 Z M28.5326472,51.898885 L29.7802105,44.4135049 L33.5716803,44.4135049 L32.2410292,51.898885 L28.5326472,51.898885 Z M50.6510721,47.010807 L39.2982456,41.3813021 L39.2982456,32.4748226 L50.6510721,26.8453177 L50.6510721,47.010807 Z" id="Shape"></path>
                <path d="M60.7578324,31.1571462 L62.7539337,30.2838519 C63.7008343,29.8696608 64.132616,28.766191 63.7183002,27.8194152 C63.3041092,26.8726394 62.2006394,26.4404834 61.2538635,26.8550487 L59.2577622,27.7283431 C58.3108616,28.1425341 57.8790799,29.2460039 58.2933957,30.1927797 C58.707961,31.1403041 59.8119298,31.5713372 60.7578324,31.1571462 Z" id="Shape"></path>
                <path d="M62.7539337,43.5723977 L60.7578324,42.6991033 C59.8109318,42.2849123 58.7075867,42.7165692 58.2933957,43.6634698 C57.8790799,44.6103704 58.3108616,45.7137154 59.2577622,46.1279064 L61.2538635,47.0012008 C62.2006394,47.4155166 63.3042339,46.9836101 63.7183002,46.0368343 C64.132616,45.0899337 63.7008343,43.9865887 62.7539337,43.5723977 Z" id="Shape"></path>
                <path d="M62.0038986,35.0567797 L60.0077973,35.0567797 C58.9743158,35.0567797 58.1364522,35.8946433 58.1364522,36.9281248 C58.1364522,37.9616062 58.9743158,38.7994698 60.0077973,38.7994698 L62.0038986,38.7994698 C63.0373801,38.7994698 63.8752437,37.9616062 63.8752437,36.9281248 C63.8752437,35.8946433 63.0373801,35.0567797 62.0038986,35.0567797 Z" id="Shape"></path>
            </g>
        </g>
    </g>
</svg>