<?xml version="1.0" encoding="UTF-8"?>
<svg width="58px" height="64px" viewBox="0 0 58 64" version="1.1" xmlns="http://www.w3.org/2000/svg" xmlns:xlink="http://www.w3.org/1999/xlink">
    <!-- Generator: Sketch 50.2 (55047) - http://www.bohemiancoding.com/sketch -->
    <title>graphic-design</title>
    <desc>Created with Sketch.</desc>
    <defs></defs>
    <g id="Page-1" stroke="none" stroke-width="1" fill="none" fill-rule="evenodd">
        <g id="20943798" transform="translate(-14330.000000, -4236.000000)" fill="#FFFFFF" fill-rule="nonzero">
            <g id="graphic-design" transform="translate(14330.000000, 4236.000000)">
                <path d="M51.711498,13.2640627 L51.2220863,13.2640627 C51.2371451,13.2490039 54.3641098,10.1342118 54.3781647,10.118149 C56.6284549,7.77712941 56.6022275,4.05985882 54.2940863,1.75184314 C51.9235765,-0.618666667 48.1387922,-0.530823529 45.8976627,1.69662745 L34.3703843,13.2640627 L5.51203137,13.2640627 C2.48533333,13.2640627 0.0232156863,15.7261804 0.0232156863,18.7528784 L0.0232156863,45.299702 C0.0232156863,48.3265255 2.48533333,50.7885176 5.51203137,50.7885176 L21.9659294,50.7885176 L21.2506353,60.2352941 L18.0581647,60.2352941 C17.0191059,60.2352941 16.1758118,61.0785882 16.1758118,62.1176471 C16.1758118,63.1567059 17.0191059,64 18.0581647,64 L39.1651137,64 C40.2041725,64 41.0474667,63.1567059 41.0474667,62.1176471 C41.0474667,61.0785882 40.2041725,60.2352941 39.1651137,60.2352941 L35.9726431,60.2352941 L35.257349,50.7885176 L51.7112471,50.7885176 C54.7379451,50.7885176 57.2000627,48.3265255 57.2000627,45.299702 L57.2000627,18.7530039 C57.2003137,15.7261804 54.7383216,13.2640627 51.711498,13.2640627 Z M53.4357333,45.2998275 C53.4357333,46.2510431 52.6627137,47.0239373 51.711498,47.0239373 C48.5696,47.0239373 6.8697098,47.0239373 5.51190588,47.0239373 C4.5606902,47.0239373 3.78767059,46.2509176 3.78767059,45.2998275 L3.78767059,18.7530039 C3.78767059,17.8017882 4.5606902,17.0287686 5.51190588,17.0287686 L30.6183529,17.0287686 L26.285302,21.3768784 C23.5159843,21.0783373 20.6794039,21.9843765 18.5715451,24.0937412 C15.6461176,27.0166588 14.1929412,36.2507294 13.7616314,40.2088157 C13.6316235,41.4083765 14.6492235,42.4151843 15.8372392,42.2830431 C19.9102745,41.8400627 29.043451,40.3927843 31.9523137,37.4743843 C34.0394667,35.3869804 34.9711059,32.5615686 34.6691765,29.7606275 L47.4450824,17.0286431 L51.7116235,17.0286431 C52.6628392,17.0286431 53.4358588,17.8016627 53.4358588,18.7528784 L53.4358588,45.2998275 L53.4357333,45.2998275 Z M32.1968941,60.2354196 L25.0265098,60.2354196 L25.7418039,50.7886431 L31.4816,50.7886431 L32.1968941,60.2354196 Z M48.5480157,4.37082353 C49.4113882,3.55513725 50.7905255,3.57270588 51.6311843,4.4134902 C52.4732235,5.25552941 52.4907922,6.63454118 51.6751059,7.49803922 C39.4432,19.6874039 51.8349804,7.33879216 33.3087373,25.8016627 C32.5594353,24.594698 31.5050667,23.5174902 30.2443922,22.7373176 C39.0716235,13.8787137 31.0953412,21.8827294 48.5480157,4.37082353 Z M17.8160941,38.2298353 C18.189302,35.7452549 19.4778353,28.5097412 21.2330667,26.7552627 C23.4518588,24.5338353 27.0602039,24.5248 29.2906667,26.7552627 C31.5163608,28.9807059 31.5061961,32.5972078 29.2906667,34.8128627 C27.5282824,36.5752471 20.2828549,37.8606431 17.8160941,38.2298353 Z" id="Shape"></path>
            </g>
        </g>
    </g>
</svg>