<?xml version="1.0" encoding="UTF-8"?>
<svg width="64px" height="64px" viewBox="0 0 64 64" version="1.1" xmlns="http://www.w3.org/2000/svg" xmlns:xlink="http://www.w3.org/1999/xlink">
    <!-- Generator: Sketch 50.2 (55047) - http://www.bohemiancoding.com/sketch -->
    <title>lead</title>
    <desc>Created with Sketch.</desc>
    <defs></defs>
    <g id="Page-1" stroke="none" stroke-width="1" fill="none" fill-rule="evenodd">
        <g id="20943798" transform="translate(-13967.000000, -4234.000000)" fill="#FFFFFF" fill-rule="nonzero">
            <g id="lead" transform="translate(13967.000000, 4234.000000)">
                <path d="M62.12325,60.249125 L56.498375,60.249125 L56.498375,18.87525 L62.12325,18.87525 C63.786125,18.87525 64.625375,16.860625 63.4545,15.68 L48.454875,0.555375 C47.72175,-0.183875 46.5255,-0.183875 45.792375,0.555375 L30.79275,15.68 C29.62175,16.86075 30.46125,18.87525 32.124,18.87525 L37.748875,18.87525 L37.748875,30.125 L24.374375,30.125 C23.338875,30.125 22.499375,30.9645 22.499375,32 L22.499375,41.37475 L9.37475,41.37475 C8.33925,41.37475 7.49975,42.21425 7.49975,43.24975 L7.49975,60.24925 L1.875,60.24925 C0.8395,60.24925 0,61.08875 0,62.12425 C0,63.15975 0.8395,63.99925 1.875,63.99925 L62.123375,63.99925 C63.158875,63.99925 63.998375,63.15975 63.998375,62.12425 C63.99825,61.088625 63.15875,60.249125 62.12325,60.249125 Z M22.499375,60.249125 L11.24975,60.249125 L11.24975,45.1245 L22.499375,45.1245 L22.499375,60.249125 Z M37.749,60.249125 L26.249375,60.249125 L26.249375,33.874875 L37.749,33.874875 L37.749,60.249125 Z M52.7485,17.00025 L52.7485,60.249125 L41.498875,60.249125 L41.498875,17.00025 C41.498875,15.96475 40.659375,15.12525 39.623875,15.12525 L36.62425,15.12525 L47.12375,4.53825 L57.62325,15.12525 L54.623625,15.12525 C53.588,15.125375 52.7485,15.964875 52.7485,17.00025 Z" id="Shape"></path>
            </g>
        </g>
    </g>
</svg>