<?xml version="1.0" encoding="UTF-8"?>
<svg width="64px" height="64px" viewBox="0 0 64 64" version="1.1" xmlns="http://www.w3.org/2000/svg" xmlns:xlink="http://www.w3.org/1999/xlink">
    <!-- Generator: Sketch 50.2 (55047) - http://www.bohemiancoding.com/sketch -->
    <title>media</title>
    <desc>Created with Sketch.</desc>
    <defs></defs>
    <g id="Page-1" stroke="none" stroke-width="1" fill="none" fill-rule="evenodd">
        <g id="20943798" transform="translate(-15047.000000, -4234.000000)" fill="#FFFFFF" fill-rule="nonzero">
            <g id="media" transform="translate(15047.000000, 4234.000000)">
                <path d="M57.125,10 L55.25,10 L55.25,5.625 C55.25,2.523375 52.726625,0 49.625,0 C46.523375,0 44,2.523375 44,5.625 L44,7.160625 C44,9.103625 42.69525,10.8335 40.826875,11.36725 L39,11.88925 L39,11.875 C39,10.8395 38.1605,10 37.125,10 L29.625,10 C28.5895,10 27.75,10.8395 27.75,11.875 L27.75,20.25 L5.625,20.25 C2.523375,20.25 0,22.773375 0,25.875 L0,62.125 C0,62.8165 0.380625,63.451875 0.99025,63.778125 C1.2675,63.926625 1.5715,64 1.874875,64 C2.238625,64 2.601375,63.89425 2.915,63.685 L9.94275,59 L45.625,59 C48.726625,59 51.25,56.476625 51.25,53.375 L51.25,33.75 L57.125,33.75 C60.915875,33.75 64,30.665875 64,26.875 L64,16.875 C64,13.084125 60.915875,10 57.125,10 Z M31.5,13.75 L35.25,13.75 L35.25,30 L31.5,30 L31.5,13.75 Z M47.5,53.375 C47.5,54.408875 46.658875,55.25 45.625,55.25 L9.375,55.25 C9.004875,55.25 8.643,55.359625 8.335,55.565 L3.75,58.621625 L3.75,25.875 C3.75,24.841125 4.591125,24 5.625,24 L27.75,24 L27.75,31.875 C27.75,32.9105 28.5895,33.75 29.625,33.75 L37.125,33.75 C38.08825,33.75 38.881,33.02325 38.987,32.088375 C40.657375,33.153625 42.621375,33.75 44.663875,33.75 L47.5,33.75 L47.5,53.375 Z M60.25,26.875 C60.25,28.598125 58.848125,30 57.125,30 L44.663875,30 C42.384125,30 40.255,28.849875 39,26.96925 L39,15.789375 L41.857,14.973125 C45.32675,13.98175 47.75,10.769125 47.75,7.160625 L47.75,5.625 C47.75,4.591125 48.591125,3.75 49.625,3.75 C50.658875,3.75 51.5,4.591125 51.5,5.625 L51.5,11.875 C51.5,12.9105 52.3395,13.75 53.375,13.75 L57.125,13.75 C58.848125,13.75 60.25,15.151875 60.25,16.875 L60.25,26.875 Z" id="Shape"></path>
                <path d="M9.375,35.25 L21.875,35.25 C22.9105,35.25 23.75,34.4105 23.75,33.375 C23.75,32.3395 22.9105,31.5 21.875,31.5 L9.375,31.5 C8.3395,31.5 7.5,32.3395 7.5,33.375 C7.5,34.4105 8.3395,35.25 9.375,35.25 Z" id="Shape"></path>
                <path d="M41.875,39 L9.375,39 C8.3395,39 7.5,39.8395 7.5,40.875 C7.5,41.9105 8.3395,42.75 9.375,42.75 L41.875,42.75 C42.9105,42.75 43.75,41.9105 43.75,40.875 C43.75,39.8395 42.9105,39 41.875,39 Z" id="Shape"></path>
                <path d="M41.875,46.5 L9.375,46.5 C8.3395,46.5 7.5,47.3395 7.5,48.375 C7.5,49.4105 8.3395,50.25 9.375,50.25 L41.875,50.25 C42.9105,50.25 43.75,49.4105 43.75,48.375 C43.75,47.3395 42.9105,46.5 41.875,46.5 Z" id="Shape"></path>
            </g>
        </g>
    </g>
</svg>