<?xml version="1.0" encoding="UTF-8"?>
<svg width="100px" height="81px" viewBox="0 0 100 81" version="1.1" xmlns="http://www.w3.org/2000/svg" xmlns:xlink="http://www.w3.org/1999/xlink">
    <!-- Generator: Sketch 50.2 (55047) - http://www.bohemiancoding.com/sketch -->
    <title>chat</title>
    <desc>Created with Sketch.</desc>
    <defs></defs>
    <g id="Page-1" stroke="none" stroke-width="1" fill="none" fill-rule="evenodd">
        <g id="20943798" transform="translate(-14003.000000, -3652.000000)" fill="#3E5EEA" fill-rule="nonzero">
            <g id="chat" transform="translate(14003.000000, 3652.000000)">
                <path d="M72.7128906,0.148046875 L5.63105469,0.148046875 C2.52597656,0.148046875 0,2.67402344 0,5.77890625 L0,46.0242187 C0,49.1291016 2.52597656,51.6552734 5.63105469,51.6552734 L9.98085937,51.6552734 L9.98085937,66.6376953 C9.98085937,67.5916016 10.5554687,68.4519531 11.4371094,68.8171875 C11.7289062,68.9382813 12.0355469,68.996875 12.3394531,68.996875 C12.9535156,68.996875 13.5566406,68.7570312 14.0080078,68.3058594 L30.6585937,51.6554687 L33.9992187,51.6554687 C35.3021484,51.6554687 36.3582031,50.5994141 36.3582031,49.2964844 C36.3582031,47.9933594 35.3017578,46.9373047 33.9992187,46.9373047 C33.9992187,46.9373047 29.5675781,46.9404297 29.5212891,46.9451172 C28.9720703,46.9824219 28.4330078,47.2085937 28.0130859,47.6283203 L14.6988281,60.9425781 C14.6988281,60.9425781 14.6947266,49.1472656 14.6871094,49.0861328 C14.5806641,47.8818359 13.5705078,46.9373047 12.3386719,46.9373047 L5.63105469,46.9373047 C5.12753906,46.9373047 4.71816406,46.5277344 4.71816406,46.0244141 L4.71816406,5.77890625 C4.71816406,5.27539062 5.12773437,4.86601562 5.63105469,4.86601562 L72.7128906,4.86601562 C73.2164062,4.86601562 73.6257812,5.27558594 73.6257812,5.77890625 L73.6257812,21.2193359 C73.6257812,22.5222656 74.6822266,23.5783203 75.9847656,23.5783203 C77.2873047,23.5783203 78.34375,22.5222656 78.34375,21.2193359 L78.34375,5.77890625 C78.34375,2.67402344 75.8177734,0.148046875 72.7128906,0.148046875 Z" id="Shape"></path>
                <path d="M94.3689453,29.0023437 L47.4128906,29.0023437 C44.3080078,29.0023437 41.7818359,31.5283203 41.7818359,34.6333984 L41.7818359,62.0884766 C41.7818359,65.1933594 44.3078125,67.7195313 47.4128906,67.7195313 L76.8101563,67.7195313 L88.7203125,79.6296875 C89.1716797,80.0810547 89.775,80.3207031 90.3888672,80.3207031 C90.6927734,80.3207031 90.9994141,80.2619141 91.2912109,80.1410156 C92.1724609,79.7757813 92.7474609,78.9158203 92.7474609,77.9615234 L92.7474609,67.7193359 L94.36875,67.7193359 C97.4736328,67.7193359 99.9998047,65.1933594 99.9998047,62.0882812 L99.9998047,34.6332031 C100,31.5283203 97.4740234,29.0023437 94.3689453,29.0023437 Z M95.2820313,62.0884766 C95.2820313,62.5917969 94.8724609,63.0013672 94.3691406,63.0013672 L90.3894531,63.0013672 C89.1480469,63.0013672 88.1328125,63.9607422 88.0396484,65.1785156 C88.0335938,65.2300781 88.0296875,72.2664062 88.0296875,72.2664062 L79.4644531,63.7009766 C79.4554688,63.6919922 79.4460938,63.6835937 79.4371094,63.6746094 C79.4035156,63.6417969 79.3716797,63.6132812 79.3416016,63.5876953 C78.9263672,63.2236328 78.3839844,63.0011719 77.7886719,63.0011719 L47.4128906,63.0011719 C46.909375,63.0011719 46.5,62.5916016 46.5,62.0882812 L46.5,34.6332031 C46.5,34.1296875 46.9095703,33.7203125 47.4128906,33.7203125 L94.3691406,33.7203125 C94.8724609,33.7203125 95.2820312,34.1298828 95.2820312,34.6332031 L95.2820312,62.0884766 Z" id="Shape"></path>
                <path d="M70.8914062,46.0019531 C69.5892578,46.0019531 68.5324219,47.0587891 68.5324219,48.3609375 C68.5324219,49.6630859 69.5892578,50.7199219 70.8914062,50.7199219 C72.19375,50.7199219 73.2503906,49.6630859 73.2503906,48.3609375 C73.2503906,47.0587891 72.1935547,46.0019531 70.8914062,46.0019531 Z" id="Shape"></path>
                <path d="M60.6390625,15.7443359 C60.6390625,15.7443359 17.7050781,15.7443359 17.7050781,15.7443359 C16.4023438,15.7443359 15.3460937,16.8003906 15.3460937,18.1033203 C15.3460937,19.40625 16.4025391,20.4623047 17.7050781,20.4623047 L60.6390625,20.4623047 C61.9417969,20.4623047 62.9980469,19.40625 62.9980469,18.1033203 C62.9980469,16.8003906 61.9417969,15.7443359 60.6390625,15.7443359 Z" id="Shape"></path>
                <path d="M33.9990234,31.3408203 L17.7050781,31.3408203 C16.4023438,31.3408203 15.3460938,32.396875 15.3460938,33.6998047 C15.3460938,35.0027344 16.4025391,36.0587891 17.7050781,36.0587891 L33.9990234,36.0587891 C35.3019531,36.0587891 36.3580078,35.0027344 36.3580078,33.6998047 C36.3580078,32.396875 35.3017578,31.3408203 33.9990234,31.3408203 Z" id="Shape"></path>
                <path d="M59.9291016,46.0019531 C58.6271484,46.0019531 57.5701172,47.0587891 57.5701172,48.3609375 C57.5701172,49.6630859 58.6271484,50.7199219 59.9291016,50.7199219 C61.2314453,50.7199219 62.2880859,49.6630859 62.2880859,48.3609375 C62.2880859,47.0587891 61.2314453,46.0019531 59.9291016,46.0019531 Z" id="Shape"></path>
                <path d="M81.8513672,46.0019531 C80.5492187,46.0019531 79.4923828,47.0587891 79.4923828,48.3609375 C79.4923828,49.6630859 80.5492187,50.7199219 81.8513672,50.7199219 C83.1537109,50.7199219 84.2103516,49.6630859 84.2103516,48.3609375 C84.2103516,47.0587891 83.1535156,46.0019531 81.8513672,46.0019531 Z" id="Shape"></path>
            </g>
        </g>
    </g>
</svg>