<?xml version="1.0" encoding="UTF-8"?>
<svg width="100px" height="100px" viewBox="0 0 100 100" version="1.1" xmlns="http://www.w3.org/2000/svg" xmlns:xlink="http://www.w3.org/1999/xlink">
    <!-- Generator: Sketch 50.2 (55047) - http://www.bohemiancoding.com/sketch -->
    <title>expert</title>
    <desc>Created with Sketch.</desc>
    <defs></defs>
    <g id="Page-1" stroke="none" stroke-width="1" fill="none" fill-rule="evenodd">
        <g id="20943798" transform="translate(-14298.000000, -3642.000000)" fill="#3E5EEA" fill-rule="nonzero">
            <g id="expert" transform="translate(14298.000000, 3642.000000)">
                <path d="M39.5833333,62.5 L14.5833333,62.5 C13.4333333,62.5 12.5,61.5666667 12.5,60.4166667 C12.5,59.2666667 13.4333333,58.3333333 14.5833333,58.3333333 L39.5833333,58.3333333 C40.7333333,58.3333333 41.6666667,59.2666667 41.6666667,60.4166667 C41.6666667,61.5666667 40.7333333,62.5 39.5833333,62.5 Z" id="Shape"></path>
                <path d="M35.4166667,75 L14.5833333,75 C13.4333333,75 12.5,74.0666667 12.5,72.9166667 C12.5,71.7666667 13.4333333,70.8333333 14.5833333,70.8333333 L35.4166667,70.8333333 C36.5666667,70.8333333 37.5,71.7666667 37.5,72.9166667 C37.5,74.0666667 36.5666667,75 35.4166667,75 Z" id="Shape"></path>
                <path d="M35.4166667,29.1666667 C30.8208333,29.1666667 27.0833333,25.4291667 27.0833333,20.8333333 C27.0833333,16.2375 30.8208333,12.5 35.4166667,12.5 C40.0125,12.5 43.75,16.2375 43.75,20.8333333 C43.75,25.4291667 40.0125,29.1666667 35.4166667,29.1666667 Z M35.4166667,16.6666667 C33.1208333,16.6666667 31.25,18.5375 31.25,20.8333333 C31.25,23.1291667 33.1208333,25 35.4166667,25 C37.7125,25 39.5833333,23.1291667 39.5833333,20.8333333 C39.5833333,18.5375 37.7125,16.6666667 35.4166667,16.6666667 Z" id="Shape"></path>
                <path d="M50,50 C48.85,50 47.9166667,49.0666667 47.9166667,47.9166667 L47.9166667,43.75 C47.9166667,40.3041667 45.1125,37.5 41.6666667,37.5 L29.1666667,37.5 C25.7208333,37.5 22.9166667,40.3041667 22.9166667,43.75 L22.9166667,47.9166667 C22.9166667,49.0666667 21.9833333,50 20.8333333,50 C19.6833333,50 18.75,49.0666667 18.75,47.9166667 L18.75,43.75 C18.75,38.0083333 23.425,33.3333333 29.1666667,33.3333333 L41.6666667,33.3333333 C47.4083333,33.3333333 52.0833333,38.0083333 52.0833333,43.75 L52.0833333,47.9166667 C52.0833333,49.0666667 51.15,50 50,50 Z" id="Shape"></path>
                <path d="M39.5833333,87.5 L10.4166667,87.5 C4.675,87.5 0,82.825 0,77.0833333 L0,10.4166667 C0,4.675 4.675,0 10.4166667,0 L60.4166667,0 C66.1583333,0 70.8333333,4.675 70.8333333,10.4166667 L70.8333333,35.6666667 C70.8333333,36.8166667 69.9,37.75 68.75,37.75 C67.6,37.75 66.6666667,36.8166667 66.6666667,35.6666667 L66.6666667,10.4166667 C66.6666667,6.97083333 63.8625,4.16666667 60.4166667,4.16666667 L10.4166667,4.16666667 C6.97083333,4.16666667 4.16666667,6.97083333 4.16666667,10.4166667 L4.16666667,77.0833333 C4.16666667,80.5291667 6.97083333,83.3333333 10.4166667,83.3333333 L39.5833333,83.3333333 C40.7333333,83.3333333 41.6666667,84.2666667 41.6666667,85.4166667 C41.6666667,86.5666667 40.7333333,87.5 39.5833333,87.5 Z" id="Shape"></path>
                <path d="M72.9166667,100 C57.9833333,100 45.8333333,87.85 45.8333333,72.9166667 C45.8333333,57.9833333 57.9833333,45.8333333 72.9166667,45.8333333 C87.85,45.8333333 100,57.9833333 100,72.9166667 C100,87.85 87.85,100 72.9166667,100 Z M72.9166667,50 C60.2791667,50 50,60.2791667 50,72.9166667 C50,85.5541667 60.2791667,95.8333333 72.9166667,95.8333333 C85.5541667,95.8333333 95.8333333,85.5541667 95.8333333,72.9166667 C95.8333333,60.2791667 85.5541667,50 72.9166667,50 Z" id="Shape"></path>
                <path d="M68.75,83.3333333 C68.2,83.3333333 67.6666667,83.1125 67.275,82.725 L58.9416667,74.3916667 C58.1291667,73.5791667 58.1291667,72.2583333 58.9416667,71.4458333 C59.7541667,70.6333333 61.075,70.6333333 61.8875,71.4458333 L68.6458333,78.2041667 L81.7625,63.2125 C82.5208333,62.3416667 83.8375,62.2541667 84.7041667,63.0166667 C85.5708333,63.775 85.6583333,65.0916667 84.9,65.9583333 L70.3166667,82.625 C69.9375,83.0583333 69.3916667,83.3166667 68.8166667,83.3333333 C68.7958333,83.3333333 68.7708333,83.3333333 68.75,83.3333333 Z" id="Shape"></path>
            </g>
        </g>
    </g>
</svg>