<?xml version="1.0" encoding="UTF-8"?>
<svg width="82px" height="100px" viewBox="0 0 82 100" version="1.1" xmlns="http://www.w3.org/2000/svg" xmlns:xlink="http://www.w3.org/1999/xlink">
    <!-- Generator: Sketch 50.2 (55047) - http://www.bohemiancoding.com/sketch -->
    <title>line-chart</title>
    <desc>Created with Sketch.</desc>
    <defs></defs>
    <g id="Page-1" stroke="none" stroke-width="1" fill="none" fill-rule="evenodd">
        <g id="20943798" transform="translate(-14600.000000, -3642.000000)" fill="#3E5EEA" fill-rule="nonzero">
            <g id="line-chart" transform="translate(14600.000000, 3642.000000)">
                <path d="M75.8349609,7.77480469 L50.1556641,7.77480469 C49.2490234,3.34355469 45.3201172,0 40.625,0 C35.9298828,0 32.0007813,3.34355469 31.0941406,7.77480469 L5.41503906,7.77480469 C2.53007813,7.77480469 0.1828125,10.1220703 0.1828125,13.0070313 L0.1828125,68.5859375 C0.1828125,71.4708984 2.52988281,73.8181641 5.41503906,73.8181641 L29.8105469,73.8181641 L21.8875,97.4248047 C21.5443359,98.4472656 22.0951172,99.5544922 23.1177734,99.8978516 C23.3238281,99.9669922 23.5333984,99.9998047 23.7394531,99.9998047 C24.5556641,99.9998047 25.3167969,99.4839844 25.5908203,98.6675781 L33.9310547,73.8181641 L47.3189453,73.8181641 L55.6591797,98.6675781 C55.9332031,99.4841797 56.6943359,99.9998047 57.5105469,99.9998047 C57.7166016,99.9998047 57.9261719,99.9667969 58.1322266,99.8978516 C59.1548828,99.5544922 59.7056641,98.4472656 59.3625,97.4248047 L51.4394531,73.8181641 L75.8349609,73.8181641 C78.7199219,73.8181641 81.0671875,71.4708984 81.0671875,68.5859375 L81.0671875,13.0070313 C81.0669922,10.121875 78.7199219,7.77480469 75.8349609,7.77480469 Z M40.625,3.90625 C43.1503906,3.90625 45.3052734,5.52226563 46.1097656,7.77480469 L35.1404297,7.77480469 C35.9449219,5.52226563 38.0998047,3.90625 40.625,3.90625 Z M77.1607422,68.5859375 C77.1607422,69.3169922 76.5660156,69.9119141 75.8347656,69.9119141 L70.7330078,69.9119141 L70.7330078,42.0681641 C70.7330078,40.9896484 69.8585937,40.1150391 68.7798828,40.1150391 C67.7011719,40.1150391 66.8267578,40.9896484 66.8267578,42.0681641 L66.8267578,69.9121094 L60.8183594,69.9121094 L60.8183594,48.0427734 C60.8183594,46.9642578 59.9439453,46.0896484 58.8652344,46.0896484 C57.7865234,46.0896484 56.9121094,46.9642578 56.9121094,48.0427734 L56.9121094,69.9119141 L51.4269531,69.9119141 L51.4269531,54.4324219 C51.4269531,53.3539063 50.5525391,52.4792969 49.4738281,52.4792969 C48.3951172,52.4792969 47.5207031,53.3539063 47.5207031,54.4324219 L47.5207031,69.9119141 L42.5777344,69.9119141 L42.5777344,49.4681641 C42.5777344,48.3896484 41.7033203,47.5150391 40.6246094,47.5150391 C39.5458984,47.5150391 38.6714844,48.3896484 38.6714844,49.4681641 L38.6714844,69.9119141 L33.0001953,69.9119141 L33.0001953,59.1652344 C33.0001953,58.0867187 32.1257813,57.2121094 31.0470703,57.2121094 C29.9683594,57.2121094 29.0939453,58.0867187 29.0939453,59.1652344 L29.0939453,69.9119141 L24.5585938,69.9119141 L24.5585938,59.9539062 C24.5585938,58.8753906 23.6841797,58.0007812 22.6054688,58.0007812 C21.5267578,58.0007812 20.6523438,58.8753906 20.6523438,59.9539062 L20.6523438,69.9119141 L15.4224609,69.9119141 L15.4224609,62.2289062 C15.4224609,61.1503906 14.5480469,60.2757812 13.4693359,60.2757812 C12.390625,60.2757812 11.5162109,61.1503906 11.5162109,62.2289062 L11.5162109,69.9119141 L5.41464844,69.9119141 C4.68359375,69.9119141 4.08867188,69.3169922 4.08867188,68.5859375 L4.08867188,13.0070312 C4.08867188,12.2759766 4.68339844,11.6810547 5.41464844,11.6810547 L32.8498047,11.6810547 L48.3994141,11.6810547 L75.8345703,11.6810547 C76.565625,11.6810547 77.1605469,12.2759766 77.1605469,13.0070312 L77.1605469,68.5859375 L77.1607422,68.5859375 Z" id="Shape"></path>
                <path d="M70.7236328,20.8757813 C70.7210938,20.8490234 70.7160156,20.8232422 70.7123047,20.796875 C70.7072266,20.7601563 70.7027344,20.7232422 70.6955078,20.6867188 C70.6894531,20.6558594 70.6808594,20.6257813 70.6732422,20.5955078 C70.6654297,20.5640625 70.6583984,20.5324219 70.6490234,20.5013672 C70.6400391,20.4714844 70.6287109,20.4425781 70.6181641,20.4132813 C70.6072266,20.3824219 70.596875,20.3513672 70.584375,20.3208984 C70.5730469,20.29375 70.5599609,20.2677734 70.5474609,20.2414063 C70.5328125,20.2099609 70.51875,20.1783203 70.5023438,20.1476563 C70.4890625,20.1228516 70.4738281,20.0990234 70.459375,20.0748047 C70.4412109,20.0443359 70.4240234,20.0134766 70.4041016,19.9837891 C70.3867188,19.9576172 70.3669922,19.9332031 70.3484375,19.9080078 C70.3292969,19.8820313 70.3111328,19.8556641 70.2904297,19.8304688 C70.2554688,19.7878906 70.2181641,19.7474609 70.1796875,19.7080078 C70.1732422,19.7015625 70.1679688,19.6943359 70.1615234,19.6878906 C70.1552734,19.6816406 70.1482422,19.6763672 70.1419922,19.6703125 C70.1023437,19.6316406 70.0615234,19.5941406 70.01875,19.5589844 C69.9949219,19.5394531 69.9699219,19.5222656 69.9453125,19.5041016 C69.91875,19.4841797 69.8927734,19.4636719 69.8652344,19.4451172 C69.8371094,19.4263672 69.8080078,19.4101563 69.7792969,19.3929688 C69.7533203,19.3773438 69.7277344,19.3611328 69.7009766,19.3466797 C69.6724609,19.3314453 69.6431641,19.3185547 69.6140625,19.3048828 C69.5853516,19.2912109 69.5570313,19.2769531 69.5273438,19.2646484 C69.4998047,19.2533203 69.4716797,19.2441406 69.4439453,19.2341797 C69.4115234,19.2224609 69.3796875,19.2101563 69.3464844,19.2001953 C69.3193359,19.1919922 69.2919922,19.1861328 69.2646484,19.1791016 C69.2302734,19.1703125 69.1962891,19.1607422 69.1611328,19.1539063 C69.1306641,19.1478516 69.0998047,19.1443359 69.0691406,19.1398438 C69.0367187,19.1349609 69.0048828,19.1291016 68.9720703,19.1257813 C68.9199219,19.1207031 68.8675781,19.11875 68.8150391,19.1177734 C68.8033203,19.1175781 68.7919922,19.1160156 68.7802734,19.1160156 L60.3433594,19.1160156 C59.2646484,19.1160156 58.3902344,19.990625 58.3902344,21.0691406 C58.3902344,22.1476563 59.2646484,23.0222656 60.3433594,23.0222656 L64.0648437,23.0222656 L47.8484375,39.2386719 L43.5912109,34.98125 C43.225,34.6150391 42.728125,34.4091797 42.2101562,34.4091797 C41.6921875,34.4091797 41.1953125,34.6150391 40.8291016,34.98125 L26.7351562,49.0753906 L22.5275391,44.8677734 C21.7648437,44.1052734 20.528125,44.1052734 19.7654297,44.8677734 L12.6380859,51.9951172 C11.8753906,52.7578125 11.8753906,53.9945313 12.6380859,54.7574219 C13.0195312,55.1386719 13.5193359,55.3294922 14.0191406,55.3294922 C14.5189453,55.3294922 15.0189453,55.1386719 15.4001953,54.7574219 L21.1462891,49.0111328 L25.3539062,53.2185547 C26.1166016,53.9810547 27.3533203,53.9810547 28.1160156,53.2185547 L42.2099609,39.1246094 L46.4671875,43.3820312 C46.8333984,43.7482422 47.3302734,43.9541016 47.8482422,43.9541016 C48.3662109,43.9541016 48.8630859,43.7482422 49.2292969,43.3820312 L66.8267578,25.7845703 L66.8267578,29.5060547 C66.8267578,30.5845703 67.7011719,31.4591797 68.7798828,31.4591797 C69.8585937,31.4591797 70.7330078,30.5845703 70.7330078,29.5060547 L70.7330078,21.0703125 C70.7333984,21.0050781 70.7300781,20.9402344 70.7236328,20.8757813 Z" id="Shape"></path>
                <circle id="Oval" cx="14.0193359" cy="21.0681641" r="1.953125"></circle>
                <circle id="Oval" cx="14.0193359" cy="29.0310547" r="1.953125"></circle>
                <circle id="Oval" cx="14.0193359" cy="36.9939453" r="1.953125"></circle>
            </g>
        </g>
    </g>
</svg>