<?xml version="1.0" encoding="UTF-8"?>
<svg width="100px" height="100px" viewBox="0 0 100 100" version="1.1" xmlns="http://www.w3.org/2000/svg" xmlns:xlink="http://www.w3.org/1999/xlink">
    <!-- Generator: Sketch 50.2 (55047) - http://www.bohemiancoding.com/sketch -->
    <title>target</title>
    <desc>Created with Sketch.</desc>
    <defs></defs>
    <g id="Page-1" stroke="none" stroke-width="1" fill="none" fill-rule="evenodd">
        <g id="20943798" transform="translate(-14884.000000, -3642.000000)" fill="#3E5EEA" fill-rule="nonzero">
            <g id="target" transform="translate(14884.000000, 3642.000000)">
                <path d="M83.6716904,29.1665988 C83.0026477,28.1629328 81.6556008,27.8979633 80.6606925,28.5539715 C79.6613035,29.2144603 79.3875764,30.5655804 80.0480652,31.5649695 C84.5319756,38.3342159 86.9,46.2028513 86.9,54.314664 C86.9,77.0731161 68.3820774,95.5910387 45.6236253,95.5910387 C22.8651731,95.5910387 4.34725051,77.0733198 4.34725051,54.3148676 C4.34725051,31.5564155 22.8651731,13.0384929 45.6236253,13.0384929 C53.7354379,13.0384929 61.6040733,15.4107943 68.3733198,19.8904277 C69.3682281,20.5464358 70.7152749,20.2814664 71.3843177,19.2778004 C72.0448065,18.2784114 71.7665988,16.9272912 70.7716904,16.2668024 C63.2855397,11.3136456 54.591446,8.69368635 45.6236253,8.69368635 C20.4668024,8.69368635 0.00244399185,29.1580448 0.00244399185,54.3148676 C0.00244399185,79.4716904 20.4668024,99.9360489 45.6236253,99.9360489 C70.7804481,99.9360489 91.2448065,79.4716904 91.2448065,54.3148676 C91.2448065,45.3470468 88.6291242,36.6484725 83.6716904,29.1665988 Z" id="Shape"></path>
                <path d="M45.6236253,43.4525458 C39.6319756,43.4525458 34.7615071,48.3274949 34.7615071,54.314664 C34.7615071,60.301833 39.6321792,65.1767821 45.6236253,65.1767821 C51.6152749,65.1767821 56.4857434,60.301833 56.4857434,54.314664 C56.4857434,48.3274949 51.6150713,43.4525458 45.6236253,43.4525458 Z M45.6236253,60.8321792 C42.0303462,60.8321792 39.1063136,57.9081466 39.1063136,54.3148676 C39.1063136,50.7215886 42.0303462,47.797556 45.6236253,47.797556 C49.2169043,47.797556 52.1409369,50.7215886 52.1409369,54.3148676 C52.1409369,57.907943 49.2167006,60.8321792 45.6236253,60.8321792 Z" id="Shape"></path>
                <path d="M99.7694501,10.0362525 C99.4348269,9.22382892 98.6397149,8.69368635 97.7621181,8.69368635 L91.2448065,8.69368635 L91.2448065,2.17637475 C91.2448065,1.298778 90.714664,0.507942974 89.9022403,0.16904277 C89.0940937,-0.17413442 88.1598778,0.016904277 87.5342159,0.638289206 L78.8446029,9.32790224 C78.4405295,9.73625255 78.2101833,10.2881874 78.2101833,10.8659878 L78.2101833,18.6564155 L44.0855397,52.7810591 C43.2382892,53.6283096 43.2382892,55.0057026 44.0855397,55.8529532 C44.5114053,56.2743381 45.0674134,56.4873727 45.6236253,56.4873727 C46.1798371,56.4873727 46.7358452,56.2745418 47.1574338,55.8529532 L81.2820774,21.7283096 L89.0725051,21.7283096 C89.6503055,21.7283096 90.2022403,21.502444 90.6105906,21.09389 L99.3004073,12.4040733 C99.9171079,11.7828921 100.10387,10.8486762 99.7694501,10.0362525 Z M88.1729124,17.3832994 L82.5549898,17.3832994 L82.5549898,11.7653768 L86.8997963,7.42057026 L86.8997963,10.8659878 C86.8997963,12.0651731 87.8731161,13.0384929 89.0723014,13.0384929 L92.5177189,13.0384929 L88.1729124,17.3832994 Z" id="Shape"></path>
                <path d="M71.0845214,42.1578411 C70.5631365,41.0672098 69.2553971,40.6154786 68.186558,41.1368635 C67.1046843,41.6582485 66.6484725,42.9529532 67.1655804,44.0348269 C68.7254582,47.2977597 69.5205703,50.7564155 69.5205703,54.3148676 C69.5205703,67.4928717 58.7973523,78.211609 45.6238289,78.211609 C32.4503055,78.211609 21.7266802,67.4928717 21.7266802,54.3148676 C21.7266802,41.1368635 32.4498982,30.4181263 45.6234216,30.4181263 C49.1818737,30.4181263 52.6403259,31.2089613 55.8989817,32.7686354 C56.9808554,33.2857434 58.2800407,32.8295316 58.796945,31.7476578 C59.314053,30.6657841 58.8578411,29.3710794 57.7759674,28.8496945 C53.9264766,27.0075356 49.8378819,26.0733198 45.6234216,26.0733198 C30.0513238,26.0733198 17.3816701,38.7429735 17.3816701,54.3150713 C17.3816701,69.887169 30.0513238,82.5568228 45.6234216,82.5568228 C61.1955193,82.5568228 73.8651731,69.887169 73.8651731,54.3150713 C73.8653768,50.1002037 72.9311609,46.0118126 71.0845214,42.1578411 Z" id="Shape"></path>
            </g>
        </g>
    </g>
</svg>