<?xml version="1.0" encoding="UTF-8"?>
<svg width="80px" height="87px" viewBox="0 0 80 87" version="1.1" xmlns="http://www.w3.org/2000/svg" xmlns:xlink="http://www.w3.org/1999/xlink">
    <!-- Generator: Sketch 50.2 (55047) - http://www.bohemiancoding.com/sketch -->
    <title>analytics</title>
    <desc>Created with Sketch.</desc>
    <defs></defs>
    <g id="Page-1" stroke="none" stroke-width="1" fill="none" fill-rule="evenodd">
        <g id="20943798" transform="translate(-14063.000000, -1632.000000)">
            <g id="analytics" transform="translate(14063.000000, 1632.000000)">
                <circle id="Oval" fill="#E8F0FD" cx="40" cy="40" r="40"></circle>
                <path d="M69.5444678,84.2138168 L8.33077583,84.2138168 C7.59621053,84.2138168 7,84.8099025 7,85.5444678 C7,86.2790331 7.59621053,86.8752437 8.33077583,86.8752437 L69.5445926,86.8752437 C70.2791579,86.8752437 70.8753684,86.2790331 70.8753684,85.5444678 C70.8752437,84.8099025 70.2790331,84.2138168 69.5444678,84.2138168 Z" id="Shape" fill="#3E5EEA" fill-rule="nonzero"></path>
                <path d="M18.9766082,68.2450058 L10.9922027,68.2450058 C10.2576374,68.2450058 9.6614269,68.8412164 9.6614269,69.5757817 L9.6614269,85.5445926 C9.6614269,86.2790331 10.2576374,86.8752437 10.9922027,86.8752437 L18.9766082,86.8752437 C19.7111735,86.8752437 20.307384,86.2790331 20.307384,85.5444678 L20.307384,69.5756569 C20.307384,68.8410916 19.7111735,68.2450058 18.9766082,68.2450058 Z M17.6458324,84.2138168 L12.3229786,84.2138168 L12.3229786,70.9064327 L17.6459571,70.9064327 L17.6459571,84.2138168 L17.6458324,84.2138168 Z" id="Shape" fill="#3E5EEA" fill-rule="nonzero"></path>
                <path d="M34.9454191,54.9376218 L26.9610136,54.9376218 C26.2264483,54.9376218 25.6302378,55.5338324 25.6302378,56.2683977 L25.6302378,85.5445926 C25.6302378,86.2791579 26.2264483,86.8753684 26.9610136,86.8753684 L34.9454191,86.8753684 C35.6799844,86.8753684 36.2761949,86.2791579 36.2761949,85.5445926 L36.2761949,56.2683977 C36.2761949,55.5338324 35.6799844,54.9376218 34.9454191,54.9376218 Z M33.6146433,84.2138168 L28.2916647,84.2138168 L28.2916647,57.5990487 L33.6146433,57.5990487 L33.6146433,84.2138168 Z" id="Shape" fill="#3E5EEA" fill-rule="nonzero"></path>
                <path d="M50.91423,60.2606004 L42.9298246,60.2606004 C42.1952593,60.2606004 41.5990487,60.8568109 41.5990487,61.5913762 L41.5990487,85.5445926 C41.5990487,86.2791579 42.1952593,86.8753684 42.9298246,86.8753684 L50.91423,86.8753684 C51.6487953,86.8753684 52.2450058,86.2791579 52.2450058,85.5445926 L52.2450058,61.5913762 C52.2450058,60.8566862 51.6487953,60.2606004 50.91423,60.2606004 Z M49.5834542,84.2138168 L44.2604756,84.2138168 L44.2604756,62.9220273 L49.5834542,62.9220273 L49.5834542,84.2138168 Z" id="Shape" fill="#3E5EEA" fill-rule="nonzero"></path>
                <path d="M66.8830409,44.2917895 L58.8986355,44.2917895 C58.1640702,44.2917895 57.5678596,44.888 57.5678596,45.6225653 L57.5678596,85.5445926 C57.5678596,86.2791579 58.1640702,86.8753684 58.8986355,86.8753684 L66.8830409,86.8753684 C67.6176062,86.8753684 68.2138168,86.2791579 68.2138168,85.5445926 L68.2138168,45.6225653 C68.2138168,44.8878752 67.6176062,44.2917895 66.8830409,44.2917895 Z M65.5522651,84.2138168 L60.2292865,84.2138168 L60.2292865,46.9532164 L65.5522651,46.9532164 L65.5522651,84.2138168 Z" id="Shape" fill="#3E5EEA" fill-rule="nonzero"></path>
                <path d="M14.9844055,46.9532164 C12.0487641,46.9532164 9.6614269,49.3405536 9.6614269,52.2761949 C9.6614269,55.2118363 12.0487641,57.5991735 14.9844055,57.5991735 C17.9200468,57.5991735 20.307384,55.2118363 20.307384,52.2761949 C20.307384,49.3405536 17.9200468,46.9532164 14.9844055,46.9532164 Z M14.9844055,54.9376218 C13.5152749,54.9376218 12.3229786,53.7425809 12.3229786,52.2761949 C12.3229786,50.8096842 13.5152749,49.614768 14.9844055,49.614768 C16.4535361,49.614768 17.6458324,50.809809 17.6458324,52.2761949 C17.6458324,53.7425809 16.4535361,54.9376218 14.9844055,54.9376218 Z" id="Shape" fill="#3E5EEA" fill-rule="nonzero"></path>
                <path d="M30.9532164,33.6458324 C28.017575,33.6458324 25.6302378,36.0331696 25.6302378,38.9688109 C25.6302378,41.9044522 28.017575,44.2917895 30.9532164,44.2917895 C33.8888577,44.2917895 36.2761949,41.9044522 36.2761949,38.9688109 C36.2761949,36.0331696 33.8888577,33.6458324 30.9532164,33.6458324 Z M30.9532164,41.6302378 C29.4840858,41.6302378 28.2917895,40.4351969 28.2917895,38.9688109 C28.2917895,37.5023002 29.4840858,36.307384 30.9532164,36.307384 C32.422347,36.307384 33.6146433,37.502425 33.6146433,38.9688109 C33.6146433,40.4353216 32.422347,41.6302378 30.9532164,41.6302378 Z" id="Shape" fill="#3E5EEA" fill-rule="nonzero"></path>
                <path d="M46.9220273,38.9688109 C43.986386,38.9688109 41.5990487,41.3561481 41.5990487,44.2917895 C41.5990487,47.2274308 43.986386,49.614768 46.9220273,49.614768 C49.8576686,49.614768 52.2450058,47.2274308 52.2450058,44.2917895 C52.2450058,41.3561481 49.8576686,38.9688109 46.9220273,38.9688109 Z M46.9220273,46.9532164 C45.4528967,46.9532164 44.2606004,45.7581754 44.2606004,44.2917895 C44.2606004,42.8252788 45.4528967,41.6303626 46.9220273,41.6303626 C48.3911579,41.6303626 49.5834542,42.8254035 49.5834542,44.2917895 C49.5834542,45.7581754 48.3911579,46.9532164 46.9220273,46.9532164 Z" id="Shape" fill="#3E5EEA" fill-rule="nonzero"></path>
                <path d="M62.8908382,23 C59.9551969,23 57.5678596,25.3873372 57.5678596,28.3229786 C57.5678596,31.2586199 59.9551969,33.6459571 62.8908382,33.6459571 C65.8264795,33.6459571 68.2138168,31.2586199 68.2138168,28.3229786 C68.2138168,25.3873372 65.8264795,23 62.8908382,23 Z M62.8908382,30.9844055 C61.4217076,30.9844055 60.2294113,29.7893645 60.2294113,28.3229786 C60.2294113,26.8564678 61.4217076,25.6615517 62.8908382,25.6615517 C64.3599688,25.6615517 65.5522651,26.8565926 65.5522651,28.3229786 C65.5522651,29.7893645 64.3599688,30.9844055 62.8908382,30.9844055 Z" id="Shape" fill="#3E5EEA" fill-rule="nonzero"></path>
                <path d="M61.011883,30.2019337 C60.4928967,29.6829474 59.6491696,29.6829474 59.1301832,30.2019337 L48.8037271,40.5283899 C48.2847407,41.0473762 48.2847407,41.8911033 48.8037271,42.4100897 C49.0645926,42.6682105 49.4051774,42.7987057 49.7458869,42.7987057 C50.0838519,42.7987057 50.4245614,42.6709552 50.6854269,42.4100897 L61.011883,32.0836335 C61.5308694,31.5646472 61.5308694,30.7209201 61.011883,30.2019337 Z" id="Shape" fill="#3E5EEA" fill-rule="nonzero"></path>
                <path d="M43.7043119,41.2204133 L35.1556335,38.7825497 C34.4396569,38.5749552 33.713076,38.9901442 33.5134659,39.6981365 C33.3112359,40.4061287 33.7210604,41.140694 34.426308,41.342924 L42.9749864,43.7807875 C43.0973723,43.815345 43.219883,43.8313138 43.3396491,43.8313138 C43.9198908,43.8313138 44.4521014,43.4506823 44.6197739,42.8652008 C44.8221287,42.1599532 44.4123041,41.4226433 43.7043119,41.2204133 Z" id="Shape" fill="#3E5EEA" fill-rule="nonzero"></path>
                <path d="M28.877271,40.6269474 C28.41954,40.0520702 27.5837973,39.9588772 27.0089201,40.4139883 L16.9751423,48.4143626 C16.4002651,48.8748382 16.3044522,49.7104561 16.7649279,50.2853333 C17.0284133,50.6153138 17.4170292,50.785731 17.8055205,50.785731 C18.0955789,50.785731 18.3883821,50.6899181 18.6332788,50.4982924 L28.6670565,42.4979181 C29.2419337,42.0374425 29.3377466,41.2018246 28.877271,40.6269474 Z" id="Shape" fill="#3E5EEA" fill-rule="nonzero"></path>
            </g>
        </g>
    </g>
</svg>