<?xml version="1.0" encoding="UTF-8"?>
<svg width="80px" height="87px" viewBox="0 0 80 87" version="1.1" xmlns="http://www.w3.org/2000/svg" xmlns:xlink="http://www.w3.org/1999/xlink">
    <!-- Generator: Sketch 50.2 (55047) - http://www.bohemiancoding.com/sketch -->
    <title>clipboard</title>
    <desc>Created with Sketch.</desc>
    <defs></defs>
    <g id="Page-1" stroke="none" stroke-width="1" fill="none" fill-rule="evenodd">
        <g id="20943798" transform="translate(-14454.000000, -1632.000000)">
            <g id="clipboard" transform="translate(14454.000000, 1632.000000)">
                <circle id="Oval" fill="#E4F6E0" cx="40" cy="40" r="40"></circle>
                <g id="Group-10" transform="translate(14.000000, 23.000000)" fill="#44B223" fill-rule="nonzero">
                    <path d="M43.8768838,8.38312528 L38.0883098,8.38312528 L38.0883098,5.79353075 C38.0883098,4.95569932 37.1743781,4.57490661 36.3365467,4.57490661 L31.8428428,4.57490661 C30.7765649,1.52827335 28.1107244,0.00495671982 25.0640911,0.00495671982 C22.0509886,-0.108318907 19.3103599,1.73922551 18.2853394,4.57490661 L13.8677358,4.57490661 C13.0299043,4.57490661 12.1920729,4.95569932 12.1920729,5.79353075 L12.1920729,8.38312528 L6.40335308,8.38312528 C2.97301139,8.41971754 0.166633257,11.125795 0.00539407745,14.552492 L0.00539407745,58.1953895 C0.00539407745,61.5467153 3.05202733,63.9839636 6.40335308,63.9839636 L43.8768838,63.9839636 C47.2282096,63.9839636 50.2748428,61.5467153 50.2748428,58.1953895 L50.2748428,14.5526378 C50.1136036,11.125795 47.3072255,8.41971754 43.8768838,8.38312528 Z M15.2385604,7.62153986 L19.4277175,7.62153986 C20.1589795,7.53231891 20.7463508,6.976 20.8749339,6.25056948 C21.3259954,4.28625057 23.0493303,2.87620957 25.0640911,2.82314351 C27.0601913,2.88364465 28.7575763,4.29805923 29.1770023,6.25056948 C29.3136036,7.00107517 29.939754,7.56453759 30.7003189,7.62153986 L35.0418223,7.62153986 L35.0418223,13.7148064 L15.2385604,13.7148064 L15.2385604,7.62153986 Z M47.2282096,58.1955353 C47.2282096,59.8711982 45.5525467,60.9374761 43.8768838,60.9374761 L6.40335308,60.9374761 C4.72769021,60.9374761 3.05202733,59.8711982 3.05202733,58.1955353 L3.05202733,14.5526378 C3.20743508,12.8084556 4.65246469,11.4618314 6.40335308,11.4299043 L12.1919271,11.4299043 L12.1919271,15.314369 C12.2724009,16.1677995 13.0115353,16.8061959 13.86759,16.7615854 L36.3364009,16.7615854 C37.2082005,16.8092574 37.9705148,16.1796082 38.088164,15.314369 L38.088164,11.4297585 L43.876738,11.4297585 C45.6274806,11.4618314 47.072656,12.8083098 47.2280638,14.552492 L47.2280638,58.1955353 L47.2282096,58.1955353 Z" id="Shape"></path>
                    <path d="M19.2753713,34.0510615 C18.7040364,33.44882 17.7555535,33.4148519 17.1426697,33.9749613 L12.2680273,38.6210114 L10.2115718,36.4883098 C9.6402369,35.8860683 8.69175399,35.852246 8.07887016,36.4122096 C7.48887472,37.0303417 7.48887472,38.0028793 8.07887016,38.6210114 L11.2016036,41.8199909 C11.4718907,42.1226424 11.8623052,42.2900046 12.2678815,42.2770296 C12.6696674,42.271344 13.0529385,42.1070433 13.3341595,41.8199909 L19.2750797,36.1837631 C19.8640547,35.6434806 19.9034169,34.7279453 19.3629886,34.1391162 C19.3352893,34.1083554 19.3059863,34.0790524 19.2753713,34.0510615 Z" id="Shape"></path>
                    <path d="M41.1349431,37.3261412 L23.6168747,37.3261412 C22.7755444,37.3261412 22.0935581,38.0081276 22.0935581,38.8494579 C22.0935581,39.6907882 22.7755444,40.3727745 23.6168747,40.3727745 L41.1349431,40.3727745 C41.9762733,40.3727745 42.6582597,39.6907882 42.6582597,38.8494579 C42.6582597,38.0081276 41.9762733,37.3261412 41.1349431,37.3261412 Z" id="Shape"></path>
                    <path d="M19.2753713,21.8645285 C18.7040364,21.262287 17.7555535,21.2283189 17.1426697,21.7884282 L12.2680273,26.4344784 L10.2115718,24.3017768 C9.6402369,23.6995353 8.69175399,23.6655672 8.07887016,24.2256765 C7.48887472,24.8438087 7.48887472,25.8163462 8.07887016,26.4344784 L11.2016036,29.6334579 C11.4718907,29.9361093 11.8623052,30.1034715 12.2678815,30.0904966 C12.6696674,30.0848109 13.0529385,29.9205103 13.3341595,29.6334579 L19.2750797,23.9972301 C19.8640547,23.4569476 19.9034169,22.5414123 19.3629886,21.9525831 C19.3352893,21.9218223 19.3059863,21.8925194 19.2753713,21.8645285 Z" id="Shape"></path>
                    <path d="M41.1349431,25.1396082 L23.6168747,25.1396082 C22.7755444,25.1396082 22.0935581,25.8215945 22.0935581,26.6629248 C22.0935581,27.5042551 22.7755444,28.1862415 23.6168747,28.1862415 L41.1349431,28.1862415 C41.9762733,28.1862415 42.6582597,27.5042551 42.6582597,26.6629248 C42.6582597,25.8215945 41.9762733,25.1396082 41.1349431,25.1396082 Z" id="Shape"></path>
                    <path d="M19.2753713,46.2374487 C18.7040364,45.6352073 17.7555535,45.601385 17.1426697,46.1613485 L12.2680273,50.8073986 L10.2115718,48.674697 C9.6402369,48.0724556 8.69175399,48.0386333 8.07887016,48.5985968 C7.48887472,49.2167289 7.48887472,50.1892665 8.07887016,50.8073986 L11.2016036,54.0063781 C11.4718907,54.3090296 11.8623052,54.4763918 12.2678815,54.4634169 C12.6696674,54.4577312 13.0529385,54.2934305 13.3341595,54.0063781 L19.2750797,48.3701503 C19.8640547,47.8298679 19.9034169,46.9143326 19.3629886,46.3255034 C19.3352893,46.2948884 19.3059863,46.2655854 19.2753713,46.2374487 Z" id="Shape"></path>
                    <path d="M41.1349431,49.5126743 L23.6168747,49.5126743 C22.7755444,49.5126743 22.0935581,50.1946606 22.0935581,51.0359909 C22.0935581,51.8773212 22.7755444,52.5593075 23.6168747,52.5593075 L41.1349431,52.5593075 C41.9762733,52.5593075 42.6582597,51.8773212 42.6582597,51.0359909 C42.6582597,50.1946606 41.9762733,49.5126743 41.1349431,49.5126743 Z" id="Shape"></path>
                </g>
            </g>
        </g>
    </g>
</svg>