<?xml version="1.0" encoding="UTF-8"?>
<svg width="24px" height="19px" viewBox="0 0 24 19" version="1.1" xmlns="http://www.w3.org/2000/svg" xmlns:xlink="http://www.w3.org/1999/xlink">
    <!-- Generator: Sketch 50.2 (55047) - http://www.bohemiancoding.com/sketch -->
    <title>email</title>
    <desc>Created with Sketch.</desc>
    <defs></defs>
    <g id="Page-1" stroke="none" stroke-width="1" fill="none" fill-rule="evenodd">
        <g id="20943798" transform="translate(-14144.000000, -2474.000000)" fill="#B1BFCC" fill-rule="nonzero">
            <g id="email" transform="translate(14144.000000, 2474.000000)">
                <path d="M21.890625,0 L2.109375,0 C0.94771875,0 0,0.9466875 0,2.109375 L0,16.171875 C0,17.330625 0.9435,18.28125 2.109375,18.28125 L21.890625,18.28125 C23.049375,18.28125 24,17.33775 24,16.171875 L24,2.109375 C24,0.950625 23.0565,0 21.890625,0 Z M21.5993437,1.40625 L12.0447187,10.9609219 L2.40745312,1.40625 L21.5993437,1.40625 Z M1.40625,15.8806875 L1.40625,2.39385937 L8.17870313,9.10823437 L1.40625,15.8806875 Z M2.40060938,16.875 L9.17732813,10.0982812 L11.551875,12.4524375 C11.82675,12.7249688 12.2703281,12.7240781 12.5440781,12.4502812 L14.859375,10.1349844 L21.5993906,16.875 L2.40060938,16.875 Z M22.59375,15.8806406 L15.8537344,9.140625 L22.59375,2.4005625 L22.59375,15.8806406 Z" id="Shape"></path>
            </g>
        </g>
    </g>
</svg>