<?xml version="1.0" encoding="UTF-8"?>
<svg width="440px" height="377px" viewBox="0 0 440 377" version="1.1" xmlns="http://www.w3.org/2000/svg" xmlns:xlink="http://www.w3.org/1999/xlink">
    <!-- Generator: Sketch 50.2 (55047) - http://www.bohemiancoding.com/sketch -->
    <title>image_2</title>
    <desc>Created with Sketch.</desc>
    <defs>
        <path d="M11.3267154,5.66632746 C11.3267154,8.75489169 8.82339446,11.2574207 5.73542418,11.2574207 C2.6474539,11.2574207 0.144132997,8.75489169 0.144132997,5.66632746 C0.144132997,2.57776322 2.6474539,0.0752342569 5.73542418,0.0752342569 C8.82339446,0.0752342569 11.3267154,2.57776322 11.3267154,5.66632746" id="path-1"></path>
        <linearGradient x1="91.8184554%" y1="-76.434136%" x2="-117.977586%" y2="557.859419%" id="linearGradient-3">
            <stop stop-color="#FDBAB9" offset="0%"></stop>
            <stop stop-color="#FF928E" offset="100%"></stop>
        </linearGradient>
        <path d="M7.5456,3.71221662 C7.5456,5.74750126 5.89638589,7.39671537 3.86209118,7.39671537 C1.82779647,7.39671537 0.178780353,5.74750126 0.178780353,3.71221662 C0.178780353,1.67891184 1.82779647,0.029697733 3.86209118,0.029697733 C5.89638589,0.029697733 7.5456,1.67891184 7.5456,3.71221662" id="path-4"></path>
        <linearGradient x1="91.816496%" y1="-76.4318732%" x2="-117.976565%" y2="557.808922%" id="linearGradient-6">
            <stop stop-color="#FDBAB9" offset="0%"></stop>
            <stop stop-color="#FF928E" offset="100%"></stop>
        </linearGradient>
        <path d="M7.42839295,3.75775315 C7.42839295,5.79303778 5.77917884,7.44225189 3.74587406,7.44225189 C1.71058942,7.44225189 0.0613753149,5.79303778 0.0613753149,3.75775315 C0.0613753149,1.72444836 1.71058942,0.0752342569 3.74587406,0.0752342569 C5.77917884,0.0752342569 7.42839295,1.72444836 7.42839295,3.75775315" id="path-7"></path>
        <linearGradient x1="91.8032787%" y1="-76.4313357%" x2="-117.983607%" y2="557.80946%" id="linearGradient-9">
            <stop stop-color="#FDBAB9" offset="0%"></stop>
            <stop stop-color="#FF928E" offset="100%"></stop>
        </linearGradient>
        <path d="M7.54322418,3.73597481 C7.54322418,5.77125945 5.89401008,7.42047355 3.85872544,7.42047355 C1.82542065,7.42047355 0.176206549,5.77125945 0.176206549,3.73597481 C0.176206549,1.70267003 1.82542065,0.0534559194 3.85872544,0.0534559194 C5.89401008,0.0534559194 7.54322418,1.70267003 7.54322418,3.73597481" id="path-10"></path>
        <linearGradient x1="91.8032787%" y1="-76.4307982%" x2="-117.983338%" y2="557.809997%" id="linearGradient-12">
            <stop stop-color="#FDBAB9" offset="0%"></stop>
            <stop stop-color="#FF928E" offset="100%"></stop>
        </linearGradient>
        <path d="M7.40067506,3.73795466 C7.40067506,5.77323929 5.75146096,7.4224534 3.71815617,7.4224534 C1.68287154,7.4224534 0.0336574307,5.77323929 0.0336574307,3.73795466 C0.0336574307,1.70464987 1.68287154,0.0554357683 3.71815617,0.0554357683 C5.75146096,0.0554357683 7.40067506,1.70464987 7.40067506,3.73795466" id="path-13"></path>
        <linearGradient x1="91.8301532%" y1="-76.4310669%" x2="-117.955657%" y2="557.804354%" id="linearGradient-15">
            <stop stop-color="#FDBAB9" offset="0%"></stop>
            <stop stop-color="#FF928E" offset="100%"></stop>
        </linearGradient>
        <path d="M7.40067506,3.759733 C7.40067506,5.79303778 5.75146096,7.44225189 3.71815617,7.44225189 C1.68287154,7.44225189 0.0336574307,5.79303778 0.0336574307,3.759733 C0.0336574307,1.72444836 1.68287154,0.0752342569 3.71815617,0.0752342569 C5.75146096,0.0752342569 7.40067506,1.72444836 7.40067506,3.759733" id="path-16"></path>
        <path d="M0.902552842,1.86792141 C0.48678458,1.86792141 0.132994196,1.54151033 0.0981316395,1.10990327 C0.0852195816,0.964318388 0.111043697,0.824409068 0.166565546,0.700074559 C0.551344869,0.52479194 0.934832987,0.351357179 1.32090352,0.178846348 C2.13823678,0.120506801 2.96202607,0.0913370277 3.78452415,0.0913370277 C4.23644617,0.0913370277 4.6896594,0.100180353 5.14029022,0.117867003 C5.58704742,0.135817632 5.93438178,0.520040302 5.9175961,0.976065491 C5.90726645,1.23384181 5.7833107,1.45954458 5.59737707,1.60394156 C5.46050925,1.70940151 5.2913613,1.77170076 5.10801008,1.77170076 C5.09768043,1.77170076 5.08735078,1.77143678 5.07702114,1.77104081 C4.64575841,1.75388212 4.21320447,1.74543476 3.77935933,1.74543476 C2.84065272,1.74543476 1.90065491,1.78542771 0.970986748,1.86501763 C0.947745044,1.86699748 0.92450334,1.86792141 0.902552842,1.86792141" id="path-18"></path>
        <linearGradient x1="4554.59442%" y1="22224.7987%" x2="368.882422%" y2="7295.08098%" id="linearGradient-20">
            <stop stop-color="#C4D4FC" offset="0%"></stop>
            <stop stop-color="#CEDDFB" offset="100%"></stop>
        </linearGradient>
        <path d="M3.67582872,6.17201441 C3.23738035,6.17201441 2.81040302,5.94937202 2.56823678,5.54731505 C1.85065995,4.3595064 1.07062972,3.18521441 0.249813602,2.05708311 C-0.165692695,1.48619536 -0.045884131,0.689477334 0.513647355,0.265105119 L0.534040302,0.249803236 C0.763460957,0.0827576826 1.02984383,0.00216776672 1.29367758,0.00216776672 C1.69388917,0.00216776672 2.08772796,0.186938001 2.34009068,0.535055834 C3.20424181,1.72248194 4.02505793,2.95861903 4.78087154,4.2091654 C5.12627708,4.78081824 4.97715365,5.51390594 4.45585894,5.908567 C4.42017128,5.93572784 4.38320907,5.96148601 4.34369773,5.98507641 C4.13467003,6.11169949 3.90397481,6.17201441 3.67582872,6.17201441" id="path-21"></path>
        <linearGradient x1="5767.40175%" y1="5911.19748%" x2="921.73367%" y2="1757.96817%" id="linearGradient-23">
            <stop stop-color="#C4D4FC" offset="0%"></stop>
            <stop stop-color="#CEDDFB" offset="100%"></stop>
        </linearGradient>
        <path d="M1.35740554,4.60969218 C1.2274005,4.60969218 1.09357179,4.58928967 0.963566751,4.54720949 C0.282952141,4.32915767 -0.091768262,3.60104308 0.12618136,2.92138445 C0.328836272,2.28763147 0.52256927,1.63857661 0.701007557,0.989521752 C0.859052897,0.415701148 1.37907305,0.0395298638 1.94625189,0.0395298638 C2.05968766,0.0395298638 2.17567254,0.0548317466 2.29038287,0.086710669 C2.9799194,0.276709047 3.38395466,0.988246595 3.19404534,1.67683132 C3.00668514,2.35904026 2.80275567,3.04379951 2.58862972,3.71070657 C2.50450882,3.97338889 2.34391436,4.19144072 2.13871033,4.34573471 C1.91693703,4.51405542 1.6429068,4.60969218 1.35740554,4.60969218" id="path-24"></path>
        <linearGradient x1="8787.92119%" y1="7039.17383%" x2="1214.05268%" y2="1432.19838%" id="linearGradient-26">
            <stop stop-color="#C4D4FC" offset="0%"></stop>
            <stop stop-color="#CEDDFB" offset="100%"></stop>
        </linearGradient>
        <path d="M1.59957179,3.53766778 C1.27710831,3.53766778 0.972488665,3.34129362 0.852680101,3.02212185 C0.623259446,2.41693238 0.372171285,1.81123286 0.107062972,1.22121776 C-0.0739244332,0.818905759 0.104513854,0.344419878 0.507274559,0.164877787 C0.614337531,0.117186919 0.725224181,0.0946166418 0.834836272,0.0946166418 C1.13945592,0.0946166418 1.43005542,0.269950715 1.56388413,0.565914631 C1.84173804,1.1850033 2.10429723,1.82066902 2.34518892,2.45480454 C2.4739194,2.79450634 2.35665995,3.16646961 2.08135516,3.37495776 C2.02145088,3.42009831 1.9551738,3.45771544 1.88252393,3.48576889 C1.78948111,3.52096322 1.69388917,3.53766778 1.59957179,3.53766778" id="path-27"></path>
        <linearGradient x1="9666.05523%" y1="10501.1218%" x2="-524.638548%" y2="3058.65672%" id="linearGradient-29">
            <stop stop-color="#C4D4FC" offset="0%"></stop>
            <stop stop-color="#CEDDFB" offset="100%"></stop>
        </linearGradient>
        <path d="M3.23610579,5.0292188 C2.96589924,5.0292188 2.70334005,4.8926495 2.55294207,4.64514154 C1.97429219,3.69374698 1.33956171,2.76096971 0.667869018,1.87346051 C0.526392947,1.68626748 0.382367758,1.50009457 0.235793451,1.31455925 C-0.0382367758,0.968736695 0.0203929471,0.466197362 0.367073048,0.192421176 C0.512372796,0.0865831533 0.689536524,0.0320064381 0.866700252,0.0320064381 C1.09994458,0.0320064381 1.33318892,0.127005627 1.48868514,0.323889852 C1.64163224,0.518096247 1.79330479,0.712812705 1.94115365,0.908804321 C2.64598489,1.83928631 3.31003023,2.81733165 3.9167204,3.81514192 C4.13212091,4.16797783 4.04035264,4.62218872 3.71788917,4.8666363 C3.69622166,4.88283079 3.6732796,4.89800516 3.65033753,4.91292449 C3.52033249,4.99160167 3.37758186,5.0292188 3.23610579,5.0292188" id="path-30"></path>
        <linearGradient x1="5856.60231%" y1="7376.81212%" x2="-203.516186%" y2="2248.99564%" id="linearGradient-32">
            <stop stop-color="#C4D4FC" offset="0%"></stop>
            <stop stop-color="#CEDDFB" offset="100%"></stop>
        </linearGradient>
        <path d="M0.670418136,5.49184572 C0.476685139,5.49184572 0.281677582,5.42145706 0.128730479,5.27914955 C0.0968664987,5.25033101 0.0688261965,5.21972724 0.0433350126,5.18746577 C1.11269018,4.52718953 2.18714358,3.8791548 3.27051889,3.24068374 C2.56823678,3.87953734 1.8927204,4.54835714 1.25671537,5.2356667 C1.22357683,5.27098855 1.18916373,5.30273996 1.15220151,5.33041086 C1.01072544,5.43777907 0.839934509,5.49184572 0.670418136,5.49184572 M49.0743526,4.38768737 C48.8716977,4.38768737 48.6690428,4.31079541 48.512272,4.15688397 C47.5538035,3.20752966 46.5265088,2.30905411 45.4609773,1.48696046 C45.1104736,1.21726477 45.0467456,0.716383145 45.3156776,0.366480092 C45.4724484,0.163220083 45.7095164,0.0559793878 45.9491335,0.0559793878 C46.1199244,0.0559793878 46.2907154,0.109791009 46.4360151,0.221622269 C47.552529,1.08299075 48.6295315,2.02507667 49.6351587,3.02059166 C49.9499748,3.33096485 49.9525239,3.83681959 49.6415315,4.15101825 C49.6147657,4.1783066 49.5854509,4.20355471 49.556136,4.22638002 C49.4133854,4.33387575 49.243869,4.38768737 49.0743526,4.38768737" id="path-33"></path>
        <linearGradient x1="568.991944%" y1="6888.99787%" x2="86.1375204%" y2="2174.97689%" id="linearGradient-35">
            <stop stop-color="#C4D4FC" offset="0%"></stop>
            <stop stop-color="#CEDDFB" offset="100%"></stop>
        </linearGradient>
        <path d="M4.52213602,3.53307721 C4.38448363,3.53307721 4.24555668,3.49762785 4.11810076,3.42290366 C2.95697733,2.73865447 1.74104786,2.1204584 0.502176322,1.58489251 C0.0981410579,1.40981347 -0.0879445844,0.93928057 0.0866700252,0.534673287 C0.217949622,0.232333587 0.511098237,0.0520264014 0.819541562,0.0520264014 C0.925329975,0.0520264014 1.03239295,0.0731940059 1.1369068,0.118079529 C2.43568262,0.67953111 3.71151637,1.32871349 4.9287204,2.04560669 C5.30853904,2.26965176 5.43599496,2.75956704 5.21167254,3.1395638 C5.1568665,3.23201267 5.08676574,3.30979724 5.00646851,3.37087726 C4.866267,3.47658776 4.69547607,3.53307721 4.52213602,3.53307721" id="path-36"></path>
        <linearGradient x1="4632.18161%" y1="10878.5739%" x2="93.6076437%" y2="3517.35192%" id="linearGradient-38">
            <stop stop-color="#C4D4FC" offset="0%"></stop>
            <stop stop-color="#CEDDFB" offset="100%"></stop>
        </linearGradient>
        <path d="M17.3046902,2.53564949 C17.2307657,2.53564949 17.1555668,2.52532072 17.0803678,2.50338802 C15.7854156,2.12441139 14.4547758,1.82232672 13.1266851,1.60682521 C12.6907859,1.53579897 12.3950882,1.12545348 12.4664635,0.689987397 C12.5301914,0.298641745 12.8692242,0.0189998378 13.2541411,0.0189998378 C13.2962015,0.0189998378 13.3395365,0.0223152457 13.381597,0.0293286086 C14.7759647,0.255923989 16.1703325,0.5721629 17.5290126,0.969629305 C17.9521662,1.09331952 18.1956071,1.53758419 18.0719748,1.96106379 C18.0209924,2.13142475 17.9190277,2.27296717 17.7877481,2.37293947 C17.6500957,2.47686476 17.4805793,2.53564949 17.3046902,2.53564949 M0.052256927,2.09890825 C0.574826196,1.84961508 1.08974811,1.60695272 1.61614106,1.36263266 C1.56388413,1.50940322 1.46956675,1.63895916 1.34465995,1.7335758 C1.25416625,1.80256179 1.14582872,1.85344055 1.02729471,1.87843363 C0.701007557,1.94678203 0.375994962,2.02035859 0.052256927,2.09890825" id="path-39"></path>
        <linearGradient x1="1473.13609%" y1="15139.8505%" x2="140.285627%" y2="4957.74676%" id="linearGradient-41">
            <stop stop-color="#C4D4FC" offset="0%"></stop>
            <stop stop-color="#CEDDFB" offset="100%"></stop>
        </linearGradient>
        <path d="M16.6572141,20.6320386 C16.2251385,20.6320386 15.8708111,20.2877462 15.8580655,19.8541929 C15.8465945,19.4129886 16.1932746,19.0444683 16.6355466,19.0329918 C17.9610882,18.9985626 19.2968262,18.879973 20.607073,18.6835989 C20.6478589,18.6784982 20.6873703,18.6746728 20.7268816,18.6746728 C21.1156222,18.6746728 21.4559295,18.9590327 21.5158338,19.3568817 C21.5604433,19.6552684 21.4329874,19.9409036 21.2073904,20.1117746 C21.1041511,20.1895592 20.9805189,20.2443909 20.8441411,20.2647934 C19.4688917,20.4700937 18.0681511,20.5937839 16.6788816,20.6307634 C16.6712343,20.6307634 16.6635869,20.6320386 16.6572141,20.6320386 M12.5760756,20.496872 C12.5505844,20.496872 12.5250932,20.4955968 12.499602,20.4943216 C11.1141562,20.3642556 9.72361209,20.147479 8.36748111,19.8529177 C7.9366801,19.7598313 7.66392443,19.3339289 7.75696725,18.9029258 C7.83726448,18.5293049 8.16864987,18.2729983 8.53699748,18.2729983 C8.59307809,18.2729983 8.65043325,18.2793741 8.70651385,18.2921257 C10.0001914,18.5726602 11.3270076,18.7779605 12.65,18.9029258 C13.0884484,18.9437309 13.4109118,19.3339289 13.3701259,19.7725828 C13.3484584,20.0046614 13.2286499,20.204861 13.0565844,20.334927 C12.9214811,20.4382147 12.7545139,20.496872 12.5760756,20.496872 M24.718801,19.4270153 C24.3682972,19.4270153 24.0471083,19.1949368 23.9502418,18.8417183 C23.8317078,18.4158159 24.0802469,17.9784371 24.5059496,17.8585723 C25.7817834,17.5053539 27.0499698,17.0692502 28.2786448,16.5630129 C28.3780605,16.5222079 28.4812997,16.5030806 28.5832645,16.5030806 C28.896806,16.5030806 29.1950529,16.6892535 29.3212343,16.9965663 C29.4627103,17.3395835 29.348,17.7246809 29.0650479,17.9389072 C29.0127909,17.9797122 28.9528866,18.0141415 28.8878841,18.0409198 C27.5993048,18.571385 26.268665,19.0291664 24.932927,19.3989619 C24.8615516,19.4180892 24.7889018,19.4270153 24.718801,19.4270153 M4.60243325,18.7613834 C4.51576322,18.7613834 4.42781864,18.7473567 4.34114861,18.7180281 C3.02580353,18.2589716 1.72702771,17.7157548 0.481783375,17.1024043 C0.085395466,16.9073053 -0.0777481108,16.4291215 0.117259446,16.0325477 C0.256186398,15.750738 0.540413098,15.5862428 0.834836272,15.5862428 C0.953370277,15.5862428 1.07317884,15.613021 1.18534005,15.6678528 C2.37322922,16.2531498 3.61210076,16.7708635 4.866267,17.2082423 C5.28304786,17.3536102 5.5035466,17.8088412 5.35697229,18.2258175 C5.30471537,18.3801115 5.20784887,18.5076272 5.08676574,18.5994385 C4.94911335,18.7040014 4.77832242,18.7613834 4.60243325,18.7613834 M32.2578186,16.311807 C31.9786902,16.311807 31.7084836,16.1664391 31.5606348,15.9063071 C31.3439597,15.5212098 31.4841612,15.0366501 31.8639798,14.8173231 C33.0161814,14.1669931 34.1416171,13.4376034 35.2109723,12.6495564 C35.3524484,12.5437184 35.5194156,12.4927121 35.6838338,12.4927121 C35.9285491,12.4927121 36.1707154,12.6062011 36.3274861,12.8178771 C36.5862217,13.1710956 36.5135718,13.6658565 36.1668917,13.9285388 L36.1579698,13.9349146 C35.0376322,14.7612162 33.8573904,15.5263104 32.6491083,16.2097945 C32.5254761,16.2786529 32.3903728,16.311807 32.2578186,16.311807 M38.823073,11.4713114 C38.6102217,11.4713114 38.3986448,11.3871511 38.2405995,11.2201055 C37.938529,10.898766 37.9538237,10.3938039 38.2750126,10.0915917 C39.2411285,9.18112966 40.1613602,8.20435948 41.0114912,7.18550911 C41.1695365,6.99678589 41.3964081,6.89987397 41.6258287,6.89987397 C41.8055416,6.89987397 41.9878035,6.95980634 42.136927,7.08477172 C42.4746851,7.36785655 42.5205693,7.87026837 42.2376171,8.2094601 C41.3467003,9.27676643 40.3818589,10.3019926 39.3698589,11.2545348 C39.3481914,11.2749373 39.3265239,11.2927895 39.3035819,11.3106417 C39.1621058,11.4177549 38.9925894,11.4713114 38.823073,11.4713114 M44.0449421,5.20289517 C43.8970932,5.20289517 43.7466952,5.1617076 43.6128665,5.075507 C43.2419698,4.83641508 43.1361814,4.34178172 43.3745239,3.97096609 C44.0933753,2.85571387 44.7510479,1.68524736 45.3284232,0.491317952 C45.4660756,0.206575417 45.7528514,0.040677505 46.0485491,0.040677505 C46.1658086,0.040677505 46.283068,0.0660531273 46.3952292,0.119864748 C46.7916171,0.31241344 46.9585844,0.790087213 46.7661259,1.18729859 C46.1607103,2.43950266 45.4711738,3.66747875 44.7166348,4.83705266 C44.6643778,4.91777009 44.6006499,4.98599098 44.528,5.04082273 C44.3877985,5.14691578 44.2170076,5.20289517 44.0449421,5.20289517" id="path-42"></path>
        <linearGradient x1="585.006847%" y1="1617.42304%" x2="71.0168562%" y2="372.979422%" id="linearGradient-44">
            <stop stop-color="#C4D4FC" offset="0%"></stop>
            <stop stop-color="#CEDDFB" offset="100%"></stop>
        </linearGradient>
        <path d="M0.836110831,3.56011054 C0.750715365,3.56011054 0.66404534,3.54646636 0.578649874,3.5175203 C0.161869018,3.37572285 -0.0624534005,2.92189451 0.0802972292,2.5040256 C0.289324937,1.88621208 0.481783375,1.25959998 0.652574307,0.641403919 C0.750715365,0.286782786 1.07317884,0.0548317466 1.42368262,0.0548317466 C1.49378338,0.0548317466 1.56388413,0.0640128762 1.63398489,0.0831402297 C2.05968766,0.200454664 2.30950126,0.640638825 2.19224181,1.06590365 C2.01380353,1.71393839 1.81242317,2.3707717 1.59192443,3.01816886 C1.53839295,3.17501316 1.44152645,3.3045691 1.31916877,3.39765555 C1.18151637,3.50183587 1.012,3.56011054 0.836110831,3.56011054" id="path-45"></path>
        <linearGradient x1="10397.5155%" y1="9664.6655%" x2="-619.759371%" y2="2354.32318%" id="linearGradient-47">
            <stop stop-color="#C4D4FC" offset="0%"></stop>
            <stop stop-color="#CEDDFB" offset="100%"></stop>
        </linearGradient>
        <path d="M2.04063023,0.0772141058 L0.137797481,8.89942065 C0.272229219,9.54485139 0.768775315,10.0299144 1.37045139,10.0853501 C2.10695516,10.1546448 3.15528514,10.1962217 4.20955466,10.0398136 C5.15493249,9.90122418 5.81343023,8.94099748 5.64573703,7.90949622 L8.10728312,0.0772141058 L2.04063023,0.0772141058" id="path-48"></path>
        <path d="M1.24176121,0.0059395466 C1.20176826,0.322715365 0.465858438,5.09811083 0.179968262,6.94926952 C0.112059446,7.38879597 0.328060957,7.80456423 0.703638287,7.96097229 C1.37460907,8.23815113 2.4771869,8.62818136 3.51660756,8.70341562 C4.07730076,8.74301259 4.60394055,8.34110327 4.77004987,7.74912846 L6.80295869,0.496942065 L1.24176121,0.0059395466" id="path-50"></path>
        <path d="M0.362906297,5.01495718 C0.362906297,5.01495718 3.52432897,-0.518720403 8.26646297,0.271239295 C13.008597,1.06317884 15.379664,5.80491688 15.379664,5.80491688 C15.379664,5.80491688 10.63753,8.17479597 7.4761073,9.75669521 C4.31468463,11.3366146 -1.21780504,9.75669521 0.362906297,5.01495718" id="path-52"></path>
        <path d="M5.8649063,2.36809723 L0.0572176322,14.7872932 C0.0572176322,14.7872932 6.52340403,19.5258635 13.100066,17.6731209 L14.7962025,0.0409828715 L5.8649063,2.36809723" id="path-54"></path>
        <path d="M11.6581421,1.32610277 C11.7777249,1.55002368 14.2212544,18.1459088 14.2212544,18.1459088 L4.71540605,19.3395597 L0.0627612091,3.95395617 C0.0627612091,3.95395617 9.65631688,-2.42016725 11.6581421,1.32610277" id="path-56"></path>
        <linearGradient x1="160.783354%" y1="-27.0939669%" x2="263.945996%" y2="-105.224822%" id="linearGradient-58">
            <stop stop-color="#FEAAA7" offset="0%"></stop>
            <stop stop-color="#EEEEF4" offset="100%"></stop>
        </linearGradient>
        <path d="M5.47408413,5.74472947 C5.47408413,5.74472947 5.45111788,0.626226196 3.3863335,0.118592947 C1.32135113,-0.389238287 -0.932706801,1.07901763 0.798671033,4.16599798 C2.95235063,8.00571688 5.47408413,5.74472947 5.47408413,5.74472947" id="path-59"></path>
        <path d="M0.190065491,10.2859088 C0.190065491,10.2859088 0.548418136,5.70929018 1.16019144,5.23115668 C1.76998489,4.75322116 6.51370277,0.0112851385 7.30366247,0.0112851385 C8.09362217,0.0112851385 8.88358186,1.59199647 7.30366247,2.38215416 C5.72176322,3.17250982 5.32975315,5.58733149 5.32975315,5.58733149 L9.61810579,5.95340554 C9.61810579,5.95340554 6.51370277,11.8666202 4.93180353,12.6569758 C3.35188413,13.4473315 0.190065491,10.2859088 0.190065491,10.2859088" id="path-61"></path>
    </defs>
    <g id="Page-1" stroke="none" stroke-width="1" fill="none" fill-rule="evenodd">
        <g id="20943798" transform="translate(-14861.000000, -142.000000)">
            <g id="image_2" transform="translate(14861.000000, 142.000000)">
                <path d="M190.615114,373.060686 C317.242651,373.060686 440,164.216959 440,67.1813217 C440,-29.8543154 317.242651,21.6635591 190.615114,21.6635591 C63.9875774,21.6635591 0,93.4947058 0,190.530343 C0,287.56598 63.9875774,373.060686 190.615114,373.060686 Z" id="Oval-2-Copy" fill="#5370EF"></path>
                <g transform="translate(24.000000, 0.000000)">
                    <g id="Group-2" transform="translate(136.411587, 209.609068)">
                        <path d="M205.035128,117.547587 C205.01533,117.547587 204.997511,117.547587 204.979693,117.547587 L7.09716423,116.06072 C3.19329824,116.033003 0.0441506297,112.859305 0.0441506297,108.955043 L0.0441506297,7.28782368 C0.0441506297,3.36178338 3.22576776,0.180166247 7.15042217,0.180166247 L205.033149,0.180166247 C208.957209,0.180166247 212.138826,3.36178338 212.138826,7.28782368 L212.138826,110.441909 C212.138826,114.369929 208.955229,117.547587 205.035128,117.547587 M43.950071,35.8867406 L7.46007053,73.8760806 L7.46007053,101.348463 C7.46007053,104.979506 10.3892569,107.931461 14.0199038,107.957199 L198.064081,109.341113 C198.081899,109.341113 198.097738,109.341113 198.115557,109.341113 C201.762438,109.341113 204.724292,106.383219 204.724292,102.730398 L204.724292,27.9930831 L174.286096,46.0829622 L148.841078,19.1807758 L112.354443,58.8648665 L86.6104685,31.0856071 L62.4658156,58.3798035 L43.950071,35.8867406" id="Fill-103" fill="#4F52FF"></path>
                        <path d="M198.115557,109.341113 C198.097738,109.341113 198.081899,109.341113 198.064081,109.341113 L14.0199038,107.957199 C10.3892569,107.931461 7.46007053,104.979506 7.46007053,101.348463 L7.46007053,73.8760806 L43.950071,35.8867406 L62.4658156,58.3798035 L86.6104685,31.0856071 L112.354443,58.8648665 L148.841078,19.1807758 L174.286096,46.0829622 L204.724292,27.9930831 L204.724292,102.730398 C204.724292,106.383219 201.762438,109.341113 198.115557,109.341113" id="Fill-104" fill="#91B3FA"></path>
                        <polygon id="Fill-105" fill="#FFFFFF" points="174.442504 109.341113 175.111693 109.341113 175.111693 45.3365592 174.442504 45.3365592"></polygon>
                        <polygon id="Fill-106" fill="#FFFFFF" points="148.506484 108.970882 149.175673 108.970882 149.175673 19.1807758 148.506484 19.1807758"></polygon>
                        <polygon id="Fill-107" fill="#FFFFFF" points="112.019849 108.697662 112.691018 108.697662 112.691018 58.3798035 112.019849 58.3798035"></polygon>
                        <polygon id="Fill-108" fill="#FFFFFF" points="86.9609018 108.697662 87.6300907 108.697662 87.6300907 32.0695919 86.9609018 32.0695919"></polygon>
                        <polygon id="Fill-109" fill="#FFFFFF" points="62.1310232 108.697662 62.8004101 108.697662 62.8004101 57.5641058 62.1310232 57.5641058"></polygon>
                        <polygon id="Fill-110" fill="#FFFFFF" points="44.0078826 108.20666 44.6772695 108.20666 44.6772695 33.9781662 44.0078826 33.9781662"></polygon>
                        <g id="Group-113" transform="translate(38.607053, 28.311839)">
                            <mask id="mask-2" fill="white">
                                <use xlink:href="#path-1"></use>
                            </mask>
                            <g id="Clip-112"></g>
                            <path d="M11.3267154,5.66632746 C11.3267154,8.75489169 8.82339446,11.2574207 5.73542418,11.2574207 C2.6474539,11.2574207 0.144132997,8.75489169 0.144132997,5.66632746 C0.144132997,2.57776322 2.6474539,0.0752342569 5.73542418,0.0752342569 C8.82339446,0.0752342569 11.3267154,2.57776322 11.3267154,5.66632746" id="Fill-111" fill="url(#linearGradient-3)" mask="url(#mask-2)"></path>
                        </g>
                        <g id="Group-116" transform="translate(58.603526, 53.851889)">
                            <mask id="mask-5" fill="white">
                                <use xlink:href="#path-4"></use>
                            </mask>
                            <g id="Clip-115"></g>
                            <path d="M7.5456,3.71221662 C7.5456,5.74750126 5.89638589,7.39671537 3.86209118,7.39671537 C1.82779647,7.39671537 0.178780353,5.74750126 0.178780353,3.71221662 C0.178780353,1.67891184 1.82779647,0.029697733 3.86209118,0.029697733 C5.89638589,0.029697733 7.5456,1.67891184 7.5456,3.71221662" id="Fill-114" fill="url(#linearGradient-6)" mask="url(#mask-5)"></path>
                        </g>
                        <g id="Group-119" transform="translate(83.549622, 28.311839)">
                            <mask id="mask-8" fill="white">
                                <use xlink:href="#path-7"></use>
                            </mask>
                            <g id="Clip-118"></g>
                            <path d="M7.42839295,3.75775315 C7.42839295,5.79303778 5.77917884,7.44225189 3.74587406,7.44225189 C1.71058942,7.44225189 0.0613753149,5.79303778 0.0613753149,3.75775315 C0.0613753149,1.72444836 1.71058942,0.0752342569 3.74587406,0.0752342569 C5.77917884,0.0752342569 7.42839295,1.72444836 7.42839295,3.75775315" id="Fill-117" fill="url(#linearGradient-9)" mask="url(#mask-8)"></path>
                        </g>
                        <g id="Group-122" transform="translate(108.495718, 54.643829)">
                            <mask id="mask-11" fill="white">
                                <use xlink:href="#path-10"></use>
                            </mask>
                            <g id="Clip-121"></g>
                            <path d="M7.54322418,3.73597481 C7.54322418,5.77125945 5.89401008,7.42047355 3.85872544,7.42047355 C1.82542065,7.42047355 0.176206549,5.77125945 0.176206549,3.73597481 C0.176206549,1.70267003 1.82542065,0.0534559194 3.85872544,0.0534559194 C5.89401008,0.0534559194 7.54322418,1.70267003 7.54322418,3.73597481" id="Fill-120" fill="url(#linearGradient-12)" mask="url(#mask-11)"></path>
                        </g>
                        <g id="Group-125" transform="translate(145.122922, 15.442821)">
                            <mask id="mask-14" fill="white">
                                <use xlink:href="#path-13"></use>
                            </mask>
                            <g id="Clip-124"></g>
                            <path d="M7.40067506,3.73795466 C7.40067506,5.77323929 5.75146096,7.4224534 3.71815617,7.4224534 C1.68287154,7.4224534 0.0336574307,5.77323929 0.0336574307,3.73795466 C0.0336574307,1.70464987 1.68287154,0.0554357683 3.71815617,0.0554357683 C5.75146096,0.0554357683 7.40067506,1.70464987 7.40067506,3.73795466" id="Fill-123" fill="url(#linearGradient-15)" mask="url(#mask-14)"></path>
                        </g>
                        <g id="Group-128" transform="translate(171.058942, 41.576826)">
                            <mask id="mask-17" fill="white">
                                <use xlink:href="#path-16"></use>
                            </mask>
                            <g id="Clip-127"></g>
                            <path d="M7.40067506,3.759733 C7.40067506,5.79303778 5.75146096,7.44225189 3.71815617,7.44225189 C1.68287154,7.44225189 0.0336574307,5.79303778 0.0336574307,3.759733 C0.0336574307,1.72444836 1.68287154,0.0752342569 3.71815617,0.0752342569 C5.75146096,0.0752342569 7.40067506,1.72444836 7.40067506,3.759733" id="Fill-126" fill="#FDB1AF" mask="url(#mask-17)"></path>
                        </g>
                    </g>
                    <g id="Group-4" transform="translate(242.531486, 34.788413)">
                        <path d="M91.6385286,16.2347607 C91.4013712,15.9321039 91.411463,15.4921765 91.6788958,15.200079 C92.5001164,14.3055939 93.3844107,13.4413873 94.3027649,12.6331575 C94.4415272,12.5093722 94.581551,12.3886403 94.7228362,12.26829 C94.8666445,12.1391615 95.045774,12.0770781 95.2249035,12.0770781 C95.4519691,12.0770781 95.6802962,12.1761826 95.8367191,12.3648501 C96.1180282,12.7016019 96.075138,13.2039944 95.7421085,13.4880771 C95.6083921,13.6002853 95.4771986,13.7144018 95.3447437,13.8323349 C95.1719215,13.9837269 95.0016223,14.1372816 94.8325846,14.2924903 C93.7603304,14.9294817 92.6969065,15.5760146 91.6385286,16.2347607" id="Fill-28" fill="#DEE8FD"></path>
                        <g id="Group-43" transform="translate(113.247355, 3.959698)">
                            <mask id="mask-19" fill="white">
                                <use xlink:href="#path-18"></use>
                            </mask>
                            <g id="Clip-42"></g>
                            <path d="M0.902552842,1.86792141 C0.48678458,1.86792141 0.132994196,1.54151033 0.0981316395,1.10990327 C0.0852195816,0.964318388 0.111043697,0.824409068 0.166565546,0.700074559 C0.551344869,0.52479194 0.934832987,0.351357179 1.32090352,0.178846348 C2.13823678,0.120506801 2.96202607,0.0913370277 3.78452415,0.0913370277 C4.23644617,0.0913370277 4.6896594,0.100180353 5.14029022,0.117867003 C5.58704742,0.135817632 5.93438178,0.520040302 5.9175961,0.976065491 C5.90726645,1.23384181 5.7833107,1.45954458 5.59737707,1.60394156 C5.46050925,1.70940151 5.2913613,1.77170076 5.10801008,1.77170076 C5.09768043,1.77170076 5.08735078,1.77143678 5.07702114,1.77104081 C4.64575841,1.75388212 4.21320447,1.74543476 3.77935933,1.74543476 C2.84065272,1.74543476 1.90065491,1.78542771 0.970986748,1.86501763 C0.947745044,1.86699748 0.92450334,1.86792141 0.902552842,1.86792141" id="Fill-41" fill="url(#linearGradient-20)" mask="url(#mask-19)"></path>
                        </g>
                        <g id="Group-3">
                            <path d="M4.97460453,28.9707996 C4.76659647,28.9707996 4.55565693,28.9204309 4.36001209,28.8143379 C3.73203678,28.4745085 3.49828262,27.6893944 3.83833501,27.0609971 C4.53475416,25.7739813 5.29706801,24.499972 6.10360907,23.2746737 C6.35214811,22.8972273 6.76434055,22.6924371 7.18456272,22.6924371 C7.42876826,22.6924371 7.67552292,22.7614231 7.89461965,22.9060259 C8.49073098,23.2985192 8.6557864,24.1008479 8.26322217,24.6973663 C7.49721209,25.8606919 6.77377229,27.0705608 6.11265844,28.2927987 C6.02178237,28.4604818 5.8996796,28.5998565 5.75692897,28.7079898 C5.53171436,28.8787333 5.25589975,28.9707996 4.97460453,28.9707996" id="Fill-6" fill="#DEE8FD"></path>
                            <g id="Group-9" transform="translate(88.709320, 20.785057)">
                                <mask id="mask-22" fill="white">
                                    <use xlink:href="#path-21"></use>
                                </mask>
                                <g id="Clip-8"></g>
                                <path d="M3.67582872,6.17201441 C3.23738035,6.17201441 2.81040302,5.94937202 2.56823678,5.54731505 C1.85065995,4.3595064 1.07062972,3.18521441 0.249813602,2.05708311 C-0.165692695,1.48619536 -0.045884131,0.689477334 0.513647355,0.265105119 L0.534040302,0.249803236 C0.763460957,0.0827576826 1.02984383,0.00216776672 1.29367758,0.00216776672 C1.69388917,0.00216776672 2.08772796,0.186938001 2.34009068,0.535055834 C3.20424181,1.72248194 4.02505793,2.95861903 4.78087154,4.2091654 C5.12627708,4.78081824 4.97715365,5.51390594 4.45585894,5.908567 C4.42017128,5.93572784 4.38320907,5.96148601 4.34369773,5.98507641 C4.13467003,6.11169949 3.90397481,6.17201441 3.67582872,6.17201441" id="Fill-7" fill="url(#linearGradient-23)" mask="url(#mask-22)"></path>
                            </g>
                            <path d="M11.4209426,19.7276973 C11.11747,19.7276973 10.8127229,19.6213492 10.5672428,19.4049551 C10.0312907,18.9330195 9.97941612,18.1153889 10.4513854,17.5791855 C11.4181385,16.4810203 12.4451783,15.4101436 13.5030625,14.3957563 C13.7523662,14.1544966 14.0739375,14.0351419 14.3952539,14.0351419 C14.7361985,14.0351419 15.0768882,14.1694159 15.3312902,14.4347761 C15.8251819,14.9504495 15.8075929,15.7693553 15.2921612,16.2638611 C14.286534,17.2278797 13.310604,18.2455825 12.3921567,19.2892984 C12.333527,19.3559891 12.2692892,19.4147738 12.2012277,19.4662902 C11.9725718,19.6394565 11.697267,19.7276973 11.4209426,19.7276973 M85.5190982,18.0215374 C85.1800655,18.0215374 84.8423073,17.8887936 84.58867,17.6248361 C83.6212796,16.6195024 82.6029068,15.6463026 81.5603174,14.7308675 C81.023728,14.2600796 80.9701965,13.442704 81.4405088,12.9054804 C81.6979698,12.613852 82.0548463,12.4647862 82.414272,12.4647862 C82.7163426,12.4647862 83.0196877,12.5707517 83.2656776,12.7862532 C84.363073,13.7489967 85.4349773,14.7735853 86.4520756,15.8312004 C86.9466045,16.3461087 86.9313098,17.165142 86.4163879,17.660413 C86.3781511,17.6962449 86.3399144,17.729654 86.2991285,17.7601302 C86.0684332,17.9346992 85.794403,18.0215374 85.5190982,18.0215374 M19.7592363,12.1461245 C19.3590247,12.1461245 18.9644212,11.9607167 18.7114212,11.6115787 C18.2979542,11.0405634 18.4181451,10.2452481 18.9774217,9.82151345 L18.999599,9.80531896 C20.1859587,8.94458805 21.4230458,8.12593733 22.6755552,7.37155451 C22.8842005,7.24607907 23.114131,7.18627421 23.34113,7.18627421 C23.7798332,7.18627421 24.2075753,7.40955418 24.4503788,7.81301382 C24.7943824,8.38466666 24.6444942,9.11622417 24.1242191,9.51024765 C24.0878942,9.53791856 24.0492751,9.56393176 24.0095088,9.58841477 C22.819198,10.3050529 21.6441819,11.0825161 20.5170892,11.8996366 C20.287796,12.0660446 20.0223053,12.1461245 19.7592363,12.1461245 M76.8559194,10.8236593 C76.6124786,10.8236593 76.3664887,10.7550558 76.1472645,10.6114732 C74.9848665,9.84867429 73.7753098,9.12731804 72.551733,8.4670418 C71.9233753,8.12810509 71.6875819,7.34324602 72.0266146,6.71446616 C72.2611335,6.28142287 72.7059547,6.03493505 73.1673451,6.03493505 C73.3738237,6.03493505 73.5841259,6.08479368 73.7791335,6.18986661 C75.0677128,6.88520967 76.342272,7.64507566 77.5658489,8.44816947 C78.1623426,8.84002519 78.3293098,9.64184385 77.9380202,10.2395099 C77.8538992,10.3667705 77.7519345,10.4745213 77.6372242,10.561487 C77.4116272,10.7331231 77.1350479,10.8236593 76.8559194,10.8236593 M29.5603416,6.59817185 C29.0570181,6.59817185 28.5786761,6.302718 28.3695209,5.81037992 C28.0898826,5.15265399 28.398071,4.39635843 29.0537043,4.11391118 C30.4006584,3.54085567 31.7887809,3.01969905 33.1799622,2.56459555 C33.3134086,2.52098519 33.4488942,2.50020013 33.5820856,2.50020013 C34.126195,2.50020013 34.6324499,2.84653274 34.8107607,3.39217238 C34.9869048,3.93067114 34.7902403,4.50168639 34.3626257,4.82557625 C34.2513567,4.90999163 34.1239008,4.9771924 33.9835718,5.02335308 C32.6627461,5.45563127 31.344597,5.95051966 30.0654494,6.49475662 C29.9005214,6.56489025 29.7289657,6.59817185 29.5603416,6.59817185 M66.7996474,5.74368921 C66.6505239,5.74368921 66.5001259,5.71767601 66.3510025,5.66297178 C65.0471285,5.17866719 63.7050176,4.74587894 62.365201,4.37570089 C61.6768116,4.18544748 61.2727763,3.47288981 61.4628131,2.7844326 C61.6217506,2.21099454 62.1425355,1.83507829 62.7095869,1.83507829 C62.8230227,1.83507829 62.9390076,1.85012514 63.0537179,1.88174903 C64.4646549,2.27181953 65.8768665,2.72768812 67.2495668,3.23673075 C67.9199849,3.4850038 68.2615668,4.2294404 68.0130277,4.8991528 C67.9238086,5.1388823 67.772136,5.33653161 67.5822267,5.48036931 C67.3591788,5.64945512 67.0838741,5.74368921 66.7996474,5.74368921 M40.3459164,3.38490398 C39.7314514,3.38490398 39.186195,2.94497485 39.0745436,2.3187453 C38.9487446,1.61536876 39.4165078,0.943488588 40.1198096,0.817630602 C41.5608262,0.559921394 43.0309028,0.36150698 44.4881063,0.227232959 C44.5282549,0.223535004 44.5681486,0.221622269 44.6077874,0.221622269 C45.2685189,0.221622269 45.832129,0.725436759 45.8942,1.39680687 C45.9366428,1.85905124 45.7305466,2.28648383 45.3860332,2.54738093 C45.2002025,2.68815825 44.9743506,2.78073465 44.7250469,2.80355995 C43.3403657,2.93107564 41.9440861,3.11992638 40.5745723,3.36450147 C40.4977164,3.37827317 40.4212428,3.38490398 40.3459164,3.38490398 M55.8686453,3.03245062 C55.8121824,3.03245062 55.7550821,3.02875266 55.6975995,3.02110172 C54.3210756,2.83939186 52.9170212,2.71417146 51.5249476,2.649521 C50.8113219,2.61585686 50.26033,2.01041236 50.293596,1.29683456 C50.3257149,0.603659275 50.8973547,0.0637578449 51.583195,0.0637578449 C51.6039703,0.0637578449 51.6246181,0.0642679076 51.6455209,0.0652880331 C53.1099894,0.133381411 54.587331,0.26536015 56.0358675,0.456506169 C56.7436302,0.549592623 57.2419829,1.19954009 57.1485577,1.90801727 C57.1015264,2.26480616 56.9132741,2.56842102 56.6472736,2.77002333 C56.4284317,2.93579372 56.1570781,3.03245062 55.8686453,3.03245062" id="Fill-10" fill="#DEE8FD"></path>
                            <path d="M1.39373048,37.3179767 C1.26092141,37.3179767 1.12581814,37.2973191 0.9926267,37.2538363 C0.313923929,37.0328516 -0.0571002519,36.3023142 0.164163224,35.6232931 C0.381475567,34.955876 0.615994458,34.2824657 0.861984383,33.6207867 C1.05469773,33.0991201 1.54858942,32.7770154 2.07358035,32.7770154 C2.22334106,32.7770154 2.37565088,32.8031561 2.52413703,32.858498 C3.19340806,33.1068985 3.5344801,33.8518452 3.2858136,34.5214301 C3.05256927,35.15072 2.8292665,35.7908488 2.62278791,36.4249843 C2.53802972,36.6858814 2.37781763,36.9008728 2.17503526,37.0546568 C1.95262469,37.223105 1.67833955,37.3179767 1.39373048,37.3179767" id="Fill-11" fill="#DEE8FD"></path>
                            <g id="Group-18" transform="translate(95.846851, 63.757845)">
                                <mask id="mask-25" fill="white">
                                    <use xlink:href="#path-24"></use>
                                </mask>
                                <g id="Clip-17"></g>
                                <path d="M1.35740554,4.60969218 C1.2274005,4.60969218 1.09357179,4.58928967 0.963566751,4.54720949 C0.282952141,4.32915767 -0.091768262,3.60104308 0.12618136,2.92138445 C0.328836272,2.28763147 0.52256927,1.63857661 0.701007557,0.989521752 C0.859052897,0.415701148 1.37907305,0.0395298638 1.94625189,0.0395298638 C2.05968766,0.0395298638 2.17567254,0.0548317466 2.29038287,0.086710669 C2.9799194,0.276709047 3.38395466,0.988246595 3.19404534,1.67683132 C3.00668514,2.35904026 2.80275567,3.04379951 2.58862972,3.71070657 C2.50450882,3.97338889 2.34391436,4.19144072 2.13871033,4.34573471 C1.91693703,4.51405542 1.6429068,4.60969218 1.35740554,4.60969218" id="Fill-16" fill="url(#linearGradient-26)" mask="url(#mask-25)"></path>
                            </g>
                            <path d="M87.861738,48.3761373 C87.8706599,48.1183005 87.7164383,47.8830341 87.4755466,47.7902027 L80.6133199,45.1404266 C79.9518237,41.7682742 78.7486398,38.4776043 76.9961209,35.406899 L80.4527254,28.917243 C80.5738086,28.6895 80.5368463,28.4101131 80.3622317,28.2211349 L74.3539597,21.7576196 C74.1780705,21.5686413 73.9027657,21.5120244 73.6669723,21.6165872 L66.9462217,24.5950987 C64.0121864,22.6229411 60.8192882,21.1830339 57.5055617,20.2784376 L55.3620081,13.239699 C55.2868091,12.9929562 55.0635063,12.821065 54.8059179,12.8117564 L45.989537,12.4911819 C45.7319486,12.4818733 45.4965375,12.6370599 45.4038771,12.8778095 L42.7554705,19.7424891 C39.3848987,20.4040405 36.0956438,21.6081712 33.0263778,23.3624045 L26.5397637,19.9037965 C26.3122549,19.7825291 26.0328715,19.818871 25.8441093,19.9945877 L19.3834962,26.0051672 C19.194734,26.1807563 19.1381436,26.4568278 19.24253,26.6927318 L22.2197728,33.4162516 C20.2484121,36.3515352 18.8091798,39.5463133 17.905135,42.8615937 L10.8695683,45.0061526 C10.6229411,45.0812594 10.4511305,45.3046668 10.4418262,45.5625036 L10.1215295,54.3828913 C10.1120977,54.6406006 10.267339,54.8759945 10.5075935,54.9688259 L17.3693103,57.618602 C18.0305516,60.9907544 19.2342453,64.2819343 20.987529,67.3525121 L17.5306695,73.8417856 C17.4093315,74.0700387 17.4457839,74.349298 17.6212907,74.5380213 L23.6290529,81.0017916 C23.8046872,81.1905148 24.0806292,81.2466217 24.3162952,81.1420588 L31.0366635,78.1645675 C33.9705713,80.13596 37.1639793,81.5756122 40.4775783,82.4809736 L42.621132,89.5198396 C42.6962035,89.7659449 42.9195063,89.9380911 43.1773496,89.9470172 L51.993603,90.2683567 C52.2513189,90.2772828 52.4864751,90.1217137 52.579263,89.8819842 L55.227797,83.0165395 C58.5982413,82.354733 61.8874962,81.1509849 64.9566348,79.396369 L71.4428665,82.8558697 C71.6710126,82.9770096 71.9501411,82.9400301 72.1387758,82.7640584 L78.5995164,76.7542439 C78.7881511,76.5782723 78.8455063,76.3015632 78.7409924,76.0656592 L75.7636222,69.3430321 C77.7353652,66.4076209 79.1743426,63.2133529 80.078005,59.8979449 L87.1135718,57.7530035 C87.3608363,57.6777693 87.5316272,57.4542342 87.5418237,57.196525 L87.861738,48.3761373" id="Fill-19" fill="#91B3FA"></path>
                            <path d="M42.4639788,49.4762151 C41.9558121,51.2207573 42.157065,53.0585134 43.0307753,54.6516944 C44.8340217,57.939814 48.9753194,59.1476426 52.2620252,57.3432956 C55.5503879,55.5397137 56.7557385,51.3958363 54.9523647,48.1073342 C53.1491184,44.8193421 49.0076932,43.6115135 45.7211149,45.415733 C45.4229955,45.5794632 45.1408081,45.7627032 44.8746801,45.964433 C43.7189098,46.8400833 42.8770635,48.0584957 42.4639788,49.4762151 Z M53.2570736,59.1577163 C48.9700937,61.5110184 43.5691491,59.9361996 41.2169501,55.6469544 C40.0773668,53.5693412 39.814935,51.1719188 40.4778332,48.8969113 C41.1403491,46.622159 42.6486625,44.7410475 44.7260665,43.6014398 C49.0129189,41.2485203 54.4138635,42.8229565 56.7661899,47.1122018 C58.9059199,51.0143094 57.7962887,55.8386105 54.3501355,58.4493667 C54.0085537,58.7082235 53.6435199,58.9455302 53.2570736,59.1577163 Z" id="Fill-20" fill="#BDD0FB"></path>
                            <path d="M61.9378413,68.7743121 C62.5297466,68.326732 63.1021511,67.8447227 63.6540353,67.3321096 C63.8273753,67.1714399 63.9981662,67.0069446 64.1664081,66.8398991 C64.9961461,66.0174229 65.7583325,65.1299137 66.4427708,64.1913982 C66.4516927,64.1786466 66.4618892,64.1658951 66.4708111,64.1531435 C66.4975768,64.1161639 66.523068,64.0791844 66.5498338,64.04348 C66.6008161,63.9720712 66.6505239,63.9006624 66.7002317,63.8292536 C66.8327859,63.6405304 66.8213149,63.3944251 66.6900353,63.2210038 C66.6568967,63.1776485 66.6186599,63.1406689 66.5727758,63.10879 C66.3382569,62.9442948 66.0157935,63.002952 65.8526499,63.2363057 C65.0114408,64.4426041 64.0351285,65.5647422 62.949204,66.5746664 C57.5602403,71.5898585 50.1963471,73.1838046 43.5516877,71.455967 C39.8557209,70.4957739 36.3822922,68.5065291 33.5949587,65.5073601 C33.1059103,64.9819955 32.6471965,64.4349532 32.2198368,63.8700587 C29.3432841,60.068816 27.8730801,55.4320904 28.0485869,50.6030713 C28.2499673,45.0561388 30.5983426,39.9195518 34.6611275,36.1399867 C43.0525703,28.3347513 56.2168549,28.8159956 64.0160101,37.2066555 C64.4965189,37.7238591 64.9489874,38.2637605 65.3721411,38.8234269 C67.2075063,41.2483928 68.4909874,44.0479997 69.1231688,47.0260011 C69.139738,47.1028931 69.171602,47.1721341 69.2162116,47.2307913 C69.333471,47.3854679 69.5335768,47.4677155 69.7362317,47.4246152 C70.0153602,47.3644278 70.195073,47.0911617 70.1351688,46.8108822 C69.4711234,43.6844525 68.1239144,40.7448333 66.1980554,38.1991101 C65.7532343,37.6116453 65.2778237,37.0452206 64.7730982,36.5020038 C56.5854574,27.6924548 42.7589118,27.1931034 33.9566786,35.3817784 C29.6913662,39.3498117 27.2263688,44.7420676 27.0150469,50.5653266 C26.8306181,55.6349679 28.3741093,60.5023693 31.3939224,64.4936104 C31.8426947,65.0865583 32.3242232,65.6603789 32.8371058,66.2125219 C36.803534,70.4791969 42.1932625,72.9466255 48.0136645,73.1583015 C53.0820766,73.3419241 57.9485985,71.7964339 61.9378413,68.7743121" id="Fill-21" fill="#BDD0FB"></path>
                            <g id="Group-24" transform="translate(146.829219, 23.845434)">
                                <mask id="mask-28" fill="white">
                                    <use xlink:href="#path-27"></use>
                                </mask>
                                <g id="Clip-23"></g>
                                <path d="M1.59957179,3.53766778 C1.27710831,3.53766778 0.972488665,3.34129362 0.852680101,3.02212185 C0.623259446,2.41693238 0.372171285,1.81123286 0.107062972,1.22121776 C-0.0739244332,0.818905759 0.104513854,0.344419878 0.507274559,0.164877787 C0.614337531,0.117186919 0.725224181,0.0946166418 0.834836272,0.0946166418 C1.13945592,0.0946166418 1.43005542,0.269950715 1.56388413,0.565914631 C1.84173804,1.1850033 2.10429723,1.82066902 2.34518892,2.45480454 C2.4739194,2.79450634 2.35665995,3.16646961 2.08135516,3.37495776 C2.02145088,3.42009831 1.9551738,3.45771544 1.88252393,3.48576889 C1.78948111,3.52096322 1.69388917,3.53766778 1.59957179,3.53766778" id="Fill-22" fill="url(#linearGradient-29)" mask="url(#mask-28)"></path>
                            </g>
                            <g id="Group-27" transform="translate(142.495718, 16.832071)">
                                <mask id="mask-31" fill="white">
                                    <use xlink:href="#path-30"></use>
                                </mask>
                                <g id="Clip-26"></g>
                                <path d="M3.23610579,5.0292188 C2.96589924,5.0292188 2.70334005,4.8926495 2.55294207,4.64514154 C1.97429219,3.69374698 1.33956171,2.76096971 0.667869018,1.87346051 C0.526392947,1.68626748 0.382367758,1.50009457 0.235793451,1.31455925 C-0.0382367758,0.968736695 0.0203929471,0.466197362 0.367073048,0.192421176 C0.512372796,0.0865831533 0.689536524,0.0320064381 0.866700252,0.0320064381 C1.09994458,0.0320064381 1.33318892,0.127005627 1.48868514,0.323889852 C1.64163224,0.518096247 1.79330479,0.712812705 1.94115365,0.908804321 C2.64598489,1.83928631 3.31003023,2.81733165 3.9167204,3.81514192 C4.13212091,4.16797783 4.04035264,4.62218872 3.71788917,4.8666363 C3.69622166,4.88283079 3.6732796,4.89800516 3.65033753,4.91292449 C3.52033249,4.99160167 3.37758186,5.0292188 3.23610579,5.0292188" id="Fill-25" fill="url(#linearGradient-32)" mask="url(#mask-31)"></path>
                            </g>
                            <g id="Group-31" transform="translate(91.513350, 10.966349)">
                                <mask id="mask-34" fill="white">
                                    <use xlink:href="#path-33"></use>
                                </mask>
                                <g id="Clip-30"></g>
                                <path d="M0.670418136,5.49184572 C0.476685139,5.49184572 0.281677582,5.42145706 0.128730479,5.27914955 C0.0968664987,5.25033101 0.0688261965,5.21972724 0.0433350126,5.18746577 C1.11269018,4.52718953 2.18714358,3.8791548 3.27051889,3.24068374 C2.56823678,3.87953734 1.8927204,4.54835714 1.25671537,5.2356667 C1.22357683,5.27098855 1.18916373,5.30273996 1.15220151,5.33041086 C1.01072544,5.43777907 0.839934509,5.49184572 0.670418136,5.49184572 M49.0743526,4.38768737 C48.8716977,4.38768737 48.6690428,4.31079541 48.512272,4.15688397 C47.5538035,3.20752966 46.5265088,2.30905411 45.4609773,1.48696046 C45.1104736,1.21726477 45.0467456,0.716383145 45.3156776,0.366480092 C45.4724484,0.163220083 45.7095164,0.0559793878 45.9491335,0.0559793878 C46.1199244,0.0559793878 46.2907154,0.109791009 46.4360151,0.221622269 C47.552529,1.08299075 48.6295315,2.02507667 49.6351587,3.02059166 C49.9499748,3.33096485 49.9525239,3.83681959 49.6415315,4.15101825 C49.6147657,4.1783066 49.5854509,4.20355471 49.556136,4.22638002 C49.4133854,4.33387575 49.243869,4.38768737 49.0743526,4.38768737" id="Fill-29" fill="url(#linearGradient-35)" mask="url(#mask-34)"></path>
                            </g>
                            <path d="M98.5183275,11.1048314 C98.2583174,11.1048314 98.002131,10.9773157 97.8491839,10.7425593 C97.6082922,10.3735289 97.7153552,9.88425117 98.0811537,9.63636067 C99.2677683,8.86144782 100.511738,8.15437333 101.777375,7.53502962 C101.889537,7.47981533 102.009345,7.45367461 102.126605,7.45367461 C102.422302,7.45367461 102.706529,7.61842488 102.845456,7.90189226 C103.016247,8.25026512 102.909184,8.66303341 102.610937,8.88911873 C102.570151,8.91972249 102.526816,8.94713837 102.478383,8.97034622 C101.27265,9.56074387 100.086035,10.2351743 98.9542267,10.9748929 C98.820398,11.0627512 98.6687254,11.1048314 98.5183275,11.1048314" id="Fill-32" fill="#DEE8FD"></path>
                            <g id="Group-35" transform="translate(129.495214, 6.758332)">
                                <mask id="mask-37" fill="white">
                                    <use xlink:href="#path-36"></use>
                                </mask>
                                <g id="Clip-34"></g>
                                <path d="M4.52213602,3.53307721 C4.38448363,3.53307721 4.24555668,3.49762785 4.11810076,3.42290366 C2.95697733,2.73865447 1.74104786,2.1204584 0.502176322,1.58489251 C0.0981410579,1.40981347 -0.0879445844,0.93928057 0.0866700252,0.534673287 C0.217949622,0.232333587 0.511098237,0.0520264014 0.819541562,0.0520264014 C0.925329975,0.0520264014 1.03239295,0.0731940059 1.1369068,0.118079529 C2.43568262,0.67953111 3.71151637,1.32871349 4.9287204,2.04560669 C5.30853904,2.26965176 5.43599496,2.75956704 5.21167254,3.1395638 C5.1568665,3.23201267 5.08676574,3.30979724 5.00646851,3.37087726 C4.866267,3.47658776 4.69547607,3.53307721 4.52213602,3.53307721" id="Fill-33" fill="url(#linearGradient-38)" mask="url(#mask-37)"></path>
                            </g>
                            <path d="M105.964302,7.4617081 C105.632917,7.4617081 105.323199,7.25334746 105.209763,6.92218922 C105.067013,6.50508539 105.287511,6.05189463 105.705567,5.90665426 C107.038756,5.4477253 108.417829,5.06798357 109.800725,4.77737531 C109.856806,4.7658989 109.911612,4.76041573 109.965144,4.76041573 C110.33604,4.76041573 110.667426,5.018635 110.746448,5.39506132 C110.778312,5.54399964 110.765567,5.69204536 110.718408,5.8256818 C110.192015,6.07000186 109.677093,6.31266422 109.154524,6.56195739 C108.164191,6.80168689 107.182781,7.08846968 106.224312,7.41809773 C106.137642,7.44768137 106.050972,7.4617081 105.964302,7.4617081" id="Fill-36" fill="#DEE8FD"></path>
                            <g id="Group-39" transform="translate(109.102267, 4.463049)">
                                <mask id="mask-40" fill="white">
                                    <use xlink:href="#path-39"></use>
                                </mask>
                                <g id="Clip-38"></g>
                                <path d="M17.3046902,2.53564949 C17.2307657,2.53564949 17.1555668,2.52532072 17.0803678,2.50338802 C15.7854156,2.12441139 14.4547758,1.82232672 13.1266851,1.60682521 C12.6907859,1.53579897 12.3950882,1.12545348 12.4664635,0.689987397 C12.5301914,0.298641745 12.8692242,0.0189998378 13.2541411,0.0189998378 C13.2962015,0.0189998378 13.3395365,0.0223152457 13.381597,0.0293286086 C14.7759647,0.255923989 16.1703325,0.5721629 17.5290126,0.969629305 C17.9521662,1.09331952 18.1956071,1.53758419 18.0719748,1.96106379 C18.0209924,2.13142475 17.9190277,2.27296717 17.7877481,2.37293947 C17.6500957,2.47686476 17.4805793,2.53564949 17.3046902,2.53564949 M0.052256927,2.09890825 C0.574826196,1.84961508 1.08974811,1.60695272 1.61614106,1.36263266 C1.56388413,1.50940322 1.46956675,1.63895916 1.34465995,1.7335758 C1.25416625,1.80256179 1.14582872,1.85344055 1.02729471,1.87843363 C0.701007557,1.94678203 0.375994962,2.02035859 0.052256927,2.09890825" id="Fill-37" fill="url(#linearGradient-41)" mask="url(#mask-40)"></path>
                            </g>
                            <g id="Group-46" transform="translate(101.200000, 52.408948)">
                                <mask id="mask-43" fill="white">
                                    <use xlink:href="#path-42"></use>
                                </mask>
                                <g id="Clip-45"></g>
                                <path d="M16.6572141,20.6320386 C16.2251385,20.6320386 15.8708111,20.2877462 15.8580655,19.8541929 C15.8465945,19.4129886 16.1932746,19.0444683 16.6355466,19.0329918 C17.9610882,18.9985626 19.2968262,18.879973 20.607073,18.6835989 C20.6478589,18.6784982 20.6873703,18.6746728 20.7268816,18.6746728 C21.1156222,18.6746728 21.4559295,18.9590327 21.5158338,19.3568817 C21.5604433,19.6552684 21.4329874,19.9409036 21.2073904,20.1117746 C21.1041511,20.1895592 20.9805189,20.2443909 20.8441411,20.2647934 C19.4688917,20.4700937 18.0681511,20.5937839 16.6788816,20.6307634 C16.6712343,20.6307634 16.6635869,20.6320386 16.6572141,20.6320386 M12.5760756,20.496872 C12.5505844,20.496872 12.5250932,20.4955968 12.499602,20.4943216 C11.1141562,20.3642556 9.72361209,20.147479 8.36748111,19.8529177 C7.9366801,19.7598313 7.66392443,19.3339289 7.75696725,18.9029258 C7.83726448,18.5293049 8.16864987,18.2729983 8.53699748,18.2729983 C8.59307809,18.2729983 8.65043325,18.2793741 8.70651385,18.2921257 C10.0001914,18.5726602 11.3270076,18.7779605 12.65,18.9029258 C13.0884484,18.9437309 13.4109118,19.3339289 13.3701259,19.7725828 C13.3484584,20.0046614 13.2286499,20.204861 13.0565844,20.334927 C12.9214811,20.4382147 12.7545139,20.496872 12.5760756,20.496872 M24.718801,19.4270153 C24.3682972,19.4270153 24.0471083,19.1949368 23.9502418,18.8417183 C23.8317078,18.4158159 24.0802469,17.9784371 24.5059496,17.8585723 C25.7817834,17.5053539 27.0499698,17.0692502 28.2786448,16.5630129 C28.3780605,16.5222079 28.4812997,16.5030806 28.5832645,16.5030806 C28.896806,16.5030806 29.1950529,16.6892535 29.3212343,16.9965663 C29.4627103,17.3395835 29.348,17.7246809 29.0650479,17.9389072 C29.0127909,17.9797122 28.9528866,18.0141415 28.8878841,18.0409198 C27.5993048,18.571385 26.268665,19.0291664 24.932927,19.3989619 C24.8615516,19.4180892 24.7889018,19.4270153 24.718801,19.4270153 M4.60243325,18.7613834 C4.51576322,18.7613834 4.42781864,18.7473567 4.34114861,18.7180281 C3.02580353,18.2589716 1.72702771,17.7157548 0.481783375,17.1024043 C0.085395466,16.9073053 -0.0777481108,16.4291215 0.117259446,16.0325477 C0.256186398,15.750738 0.540413098,15.5862428 0.834836272,15.5862428 C0.953370277,15.5862428 1.07317884,15.613021 1.18534005,15.6678528 C2.37322922,16.2531498 3.61210076,16.7708635 4.866267,17.2082423 C5.28304786,17.3536102 5.5035466,17.8088412 5.35697229,18.2258175 C5.30471537,18.3801115 5.20784887,18.5076272 5.08676574,18.5994385 C4.94911335,18.7040014 4.77832242,18.7613834 4.60243325,18.7613834 M32.2578186,16.311807 C31.9786902,16.311807 31.7084836,16.1664391 31.5606348,15.9063071 C31.3439597,15.5212098 31.4841612,15.0366501 31.8639798,14.8173231 C33.0161814,14.1669931 34.1416171,13.4376034 35.2109723,12.6495564 C35.3524484,12.5437184 35.5194156,12.4927121 35.6838338,12.4927121 C35.9285491,12.4927121 36.1707154,12.6062011 36.3274861,12.8178771 C36.5862217,13.1710956 36.5135718,13.6658565 36.1668917,13.9285388 L36.1579698,13.9349146 C35.0376322,14.7612162 33.8573904,15.5263104 32.6491083,16.2097945 C32.5254761,16.2786529 32.3903728,16.311807 32.2578186,16.311807 M38.823073,11.4713114 C38.6102217,11.4713114 38.3986448,11.3871511 38.2405995,11.2201055 C37.938529,10.898766 37.9538237,10.3938039 38.2750126,10.0915917 C39.2411285,9.18112966 40.1613602,8.20435948 41.0114912,7.18550911 C41.1695365,6.99678589 41.3964081,6.89987397 41.6258287,6.89987397 C41.8055416,6.89987397 41.9878035,6.95980634 42.136927,7.08477172 C42.4746851,7.36785655 42.5205693,7.87026837 42.2376171,8.2094601 C41.3467003,9.27676643 40.3818589,10.3019926 39.3698589,11.2545348 C39.3481914,11.2749373 39.3265239,11.2927895 39.3035819,11.3106417 C39.1621058,11.4177549 38.9925894,11.4713114 38.823073,11.4713114 M44.0449421,5.20289517 C43.8970932,5.20289517 43.7466952,5.1617076 43.6128665,5.075507 C43.2419698,4.83641508 43.1361814,4.34178172 43.3745239,3.97096609 C44.0933753,2.85571387 44.7510479,1.68524736 45.3284232,0.491317952 C45.4660756,0.206575417 45.7528514,0.040677505 46.0485491,0.040677505 C46.1658086,0.040677505 46.283068,0.0660531273 46.3952292,0.119864748 C46.7916171,0.31241344 46.9585844,0.790087213 46.7661259,1.18729859 C46.1607103,2.43950266 45.4711738,3.66747875 44.7166348,4.83705266 C44.6643778,4.91777009 44.6006499,4.98599098 44.528,5.04082273 C44.3877985,5.14691578 44.2170076,5.20289517 44.0449421,5.20289517" id="Fill-44" fill="url(#linearGradient-44)" mask="url(#mask-43)"></path>
                            </g>
                            <g id="Group-49" transform="translate(147.976322, 46.670742)">
                                <mask id="mask-46" fill="white">
                                    <use xlink:href="#path-45"></use>
                                </mask>
                                <g id="Clip-48"></g>
                                <path d="M0.836110831,3.56011054 C0.750715365,3.56011054 0.66404534,3.54646636 0.578649874,3.5175203 C0.161869018,3.37572285 -0.0624534005,2.92189451 0.0802972292,2.5040256 C0.289324937,1.88621208 0.481783375,1.25959998 0.652574307,0.641403919 C0.750715365,0.286782786 1.07317884,0.0548317466 1.42368262,0.0548317466 C1.49378338,0.0548317466 1.56388413,0.0640128762 1.63398489,0.0831402297 C2.05968766,0.200454664 2.30950126,0.640638825 2.19224181,1.06590365 C2.01380353,1.71393839 1.81242317,2.3707717 1.59192443,3.01816886 C1.53839295,3.17501316 1.44152645,3.3045691 1.31916877,3.39765555 C1.18151637,3.50183587 1.012,3.56011054 0.836110831,3.56011054" id="Fill-47" fill="url(#linearGradient-47)" mask="url(#mask-46)"></path>
                            </g>
                            <path d="M142.751904,36.3389112 C142.758277,36.1663825 142.655038,36.0089006 142.493169,35.9466729 L137.902207,34.1735673 C137.459935,31.9171771 136.654413,29.7152362 135.480544,27.6603209 L137.793869,23.3177741 C137.875441,23.1653928 137.851224,22.9785823 137.733965,22.8519592 L133.71273,18.5270096 C133.595471,18.400514 133.41066,18.3626419 133.253889,18.4325205 L128.757244,20.4257182 C126.793149,19.1059308 124.656987,18.1424223 122.439254,17.5371053 L121.004101,12.8271858 C120.954393,12.6619254 120.80527,12.5470338 120.633204,12.5407855 L114.73327,12.3264317 C114.561204,12.3200559 114.403159,12.4238536 114.340705,12.584906 L112.569068,17.1785312 C110.313098,17.6211381 108.111935,18.4270373 106.05862,19.6008192 L101.718746,17.2864094 C101.565798,17.2053095 101.378438,17.229665 101.252257,17.3472344 L96.9289521,21.3692068 C96.8027708,21.4867763 96.7658086,21.6715465 96.8346348,21.8292834 L98.8280453,26.3284195 C97.5088766,28.2925437 96.5453098,30.4303442 95.9398942,32.6487346 L91.2329471,34.0837962 C91.0672544,34.1341649 90.9525441,34.2836133 90.9461713,34.4560145 L90.7320453,40.3584608 C90.7256725,40.530862 90.8289118,40.6882163 90.9907809,40.7503165 L95.5817431,42.5235497 C96.0240151,44.7799398 96.8295365,46.9820082 98.0034055,49.0367961 L95.6900806,53.3793429 C95.6085088,53.5315966 95.6327254,53.7186621 95.7499849,53.8450302 L99.7699446,58.1702348 C99.8884786,58.2966029 100.07329,58.3344751 100.23006,58.2645965 L104.726705,56.2715262 C106.690801,57.5911861 108.826962,58.5546947 111.044695,59.1598841 L112.478574,63.8700587 C112.529557,64.0345539 112.67868,64.1505932 112.850746,64.156969 L118.75068,64.3711953 C118.922746,64.3775711 119.080791,64.2730082 119.143244,64.1123385 L120.914882,59.5192233 C123.170851,59.0759788 125.370741,58.2700796 127.42533,57.0964252 L131.765204,59.410835 C131.918151,59.4911699 132.104237,59.4669419 132.231693,59.3496275 L136.553723,55.3279101 C136.681179,55.2104682 136.718141,55.0256979 136.64804,54.8678335 L134.655904,50.3688249 C135.975073,48.4047008 136.93864,46.2667727 137.544055,44.0485098 L142.251003,42.6134482 C142.416695,42.563207 142.531406,42.4135036 142.537778,42.2411024 L142.751904,36.3389112" id="Fill-50" fill="#91B3FA"></path>
                            <path d="M112.845647,40.486614 C113.41665,41.5279072 114.358549,42.2843302 115.49928,42.6167636 C116.637461,42.9488145 117.83937,42.8170908 118.879411,42.2460755 C119.919451,41.6735301 120.675264,40.7323368 121.007924,39.5919639 C121.340584,38.4526113 121.20803,37.2510309 120.637028,36.2103754 C119.459335,34.0613535 116.753446,33.2722864 114.604539,34.4506589 C114.410806,34.5573895 114.228544,34.6761066 114.057753,34.8059176 C112.330725,36.114101 111.773743,38.5320535 112.845647,40.486614 Z M119.64797,43.6465803 C118.233209,44.4236609 116.600499,44.6025655 115.051909,44.1505223 C113.50332,43.6992443 112.222388,42.6710853 111.446181,41.2555336 C109.84406,38.3344042 110.915965,34.6601671 113.83598,33.0500265 C116.75727,31.4477919 120.435647,32.5207089 122.037768,35.4414558 C122.813975,36.8566249 122.992413,38.4895908 122.541219,40.039289 C122.174146,41.2990165 121.42598,42.3813697 120.398685,43.1594704 C120.162892,43.3382474 119.911804,43.5012124 119.64797,43.6465803 Z" id="Fill-51" fill="#BDD0FB"></path>
                            <path d="M125.690655,50.3394963 C126.093416,50.0342238 126.483431,49.7061259 126.8607,49.3550752 C127.611416,48.6576919 128.29203,47.8830341 128.883426,47.0507392 C128.910191,47.0131221 128.936957,46.9755049 128.962448,46.9378878 C129.166378,46.646897 129.148534,46.2676653 128.945879,45.9987347 C128.896171,45.9334467 128.834992,45.874662 128.764892,45.8254409 C128.402917,45.5728323 127.907113,45.6633685 127.653476,46.0234728 C127.107965,46.8059091 126.475783,47.532621 125.773501,48.1843537 L125.773501,48.1846087 C125.735264,48.2204406 125.695753,48.25589 125.657516,48.2910843 C123.98402,49.8183397 121.993159,50.8703442 119.850625,51.3976215 C118.688227,51.6837667 117.47867,51.8147254 116.25127,51.7811887 L116.22068,51.7804236 C116.190091,51.779276 116.159501,51.7786384 116.128912,51.7772357 C112.539753,51.6465322 109.215703,50.12578 106.771098,47.4942388 C106.453733,47.1538994 106.156761,46.8001709 105.880181,46.4344559 C104.01805,43.9736581 103.067229,40.9716837 103.17939,37.8451265 C103.31067,34.2540297 104.831219,30.9293131 107.460635,28.4827971 C110.09005,26.0385763 113.516065,24.7602315 117.105224,24.8900425 C120.694383,25.0207461 124.018433,26.5416257 126.464312,29.1730395 C126.775305,29.5076407 127.068453,29.8572887 127.342484,30.2191782 C128.530373,31.7894064 129.361385,33.6015319 129.770519,35.5291866 C129.79601,35.6481587 129.845718,35.7550168 129.914544,35.845553 C130.095531,36.0843899 130.403975,36.211523 130.717516,36.1449598 C131.148317,36.0522559 131.423622,35.6297964 131.333128,35.1971357 C130.875562,33.0402078 129.945134,31.0121983 128.617043,29.2559247 C128.309874,28.8504248 127.982312,28.4594617 127.634358,28.0849481 C124.897879,25.1407384 121.178715,23.439169 117.162579,23.293291 C113.147718,23.1476681 109.315118,24.5712533 106.373436,27.312203 C103.430479,30.0497099 101.730217,33.76947 101.584917,37.7873619 C101.457461,41.2849898 102.521718,44.6433705 104.605622,47.3965617 C104.914065,47.8052495 105.246725,48.2015683 105.601053,48.5823301 C110.898121,54.2818989 119.616106,54.9407725 125.690655,50.3394963" id="Fill-52" fill="#BDD0FB"></path>
                        </g>
                    </g>
                    <g id="Group">
                        <path d="M176.549063,376.312343 L54.2983451,376.312343 L54.2983451,258.010433 C54.2983451,248.228 62.2290257,240.296725 72.0118549,240.296725 L158.835355,240.296725 C168.617788,240.296725 176.549063,248.228 176.549063,258.010433 L176.549063,376.312343" id="Fill-14" fill="#352AAF"></path>
                        <path d="M118.120555,376.312343 L0.0247481108,376.312343 L0.0247481108,300.212892 C0.0247481108,290.430458 7.95542872,282.499184 17.7382579,282.499184 L100.407243,282.499184 C110.190073,282.499184 118.120555,290.430458 118.120555,300.212892 L118.120555,376.312343" id="Fill-15" fill="#100774"></path>
                        <path d="M203.888796,1.14633249 L4.84112645,0.000197984887 C2.44214358,-0.026134005 0.493972292,3.15251335 0.512186902,7.06291285 L0.953099244,101.39796 C0.971511839,105.330534 2.97076322,108.46899 5.38241713,108.350793 L203.296821,103.273471 C205.597406,103.160619 207.436685,100.111058 207.466383,96.3570665 L208.15933,8.24567456 C208.191008,4.35804332 206.274514,1.1724665 203.888796,1.14633249" id="Fill-16" fill="#91B3FA"></path>
                        <path d="M4.81340856,6.66476524 C4.80093552,6.66476524 4.77579144,6.66476524 4.73540252,6.73109018 C4.69006398,6.80573048 4.66808766,6.89818942 4.66868161,7.01341662 L5.10939597,101.347276 C5.11038589,101.55615 5.20284484,101.689195 5.25075718,101.689195 L203.174071,96.6112791 C203.225547,96.6065275 203.3087,96.4703139 203.31068,96.271537 L204.003627,8.161333 C204.005607,8.04669975 203.983829,7.95463678 203.938292,7.87880856 C203.896715,7.81208766 203.870977,7.8114937 203.861078,7.8114937 L4.81340856,6.66476524 Z M5.25610277,102.300375 C4.88785088,102.300375 4.60196071,101.883221 4.59899093,101.350839 L4.15827657,7.01698035 C4.15748463,6.76910327 4.21272242,6.55191385 4.323,6.3705597 C4.48297179,6.10842771 4.67858086,6.05358589 4.81459647,6.05358589 L203.865038,7.20011637 C203.999668,7.20150227 204.193693,7.2587199 204.352081,7.52124786 C204.460972,7.70398791 204.516408,7.92058338 204.514428,8.16667859 L203.821481,96.2774766 C203.817521,96.7991668 203.544302,97.2052338 203.189909,97.2224584 L203.18397,97.2224584 L5.25610277,102.300375 Z" id="Fill-17" fill="#FFFFFF"></path>
                        <polygon id="Fill-18" fill="#4F52FF" points="12.1255844 94.2336786 23.7288846 94.2336786 23.7288846 78.4439879 12.1255844 78.4439879"></polygon>
                        <polygon id="Fill-19" fill="#4F52FF" points="31.5134524 94.2336786 43.1167526 94.2336786 43.1167526 72.063331 31.5134524 72.063331"></polygon>
                        <polygon id="Fill-20" fill="#4F52FF" points="50.9015184 94.2336786 62.5048186 94.2336786 62.5048186 67.4081123 50.9015184 67.4081123"></polygon>
                        <polygon id="Fill-21" fill="#4F52FF" points="70.2895844 94.2336786 81.8928846 94.2336786 81.8928846 62.6540992 70.2895844 62.6540992"></polygon>
                        <polygon id="Fill-22" fill="#4F52FF" points="89.6776504 94.2336786 101.280951 94.2336786 101.280951 57.2946484 89.6776504 57.2946484"></polygon>
                        <polygon id="Fill-23" fill="#4F52FF" points="109.065716 94.2336786 120.669017 94.2336786 120.669017 48.0277678 109.065716 48.0277678"></polygon>
                        <polygon id="Fill-24" fill="#4F52FF" points="128.453584 94.2336786 140.056489 94.2336786 140.056489 40.5823481 128.453584 40.5823481"></polygon>
                        <polygon id="Fill-25" fill="#4F52FF" points="147.841254 94.2336786 159.445149 94.2336786 159.445149 33.4473688 147.841254 33.4473688"></polygon>
                        <polygon id="Fill-26" fill="#4F52FF" points="167.229914 94.2336786 178.833809 94.2336786 178.833809 27.4692151 167.229914 27.4692151"></polygon>
                        <polygon id="Fill-27" fill="#4F52FF" points="186.618574 94.2336786 198.220489 94.2336786 198.220489 15.7645466 186.618574 15.7645466"></polygon>
                        <path d="M116.937002,21.2166544 C115.565956,21.8606992 114.891026,23.6114796 115.429743,25.126064 C115.968459,26.6390645 117.515513,27.3415149 118.884579,26.697866 L126.811102,22.9610992 C105.998535,45.6337345 77.591267,55.3421214 41.9035013,51.6103043 C40.7569708,51.4903254 39.850794,51.3956887 39.1776453,51.3549038 C38.2879013,51.3008539 36.6305698,51.2006736 35.6246086,52.805737 C34.7449617,54.2098458 35.0524322,56.0916922 36.3108242,57.0081642 C36.6246302,57.2364408 36.9675401,57.3833456 37.3193592,57.4534322 C37.7173088,57.5326262 38.1265436,57.5138176 38.5171678,57.4029461 C39.0352942,57.4235365 40.13807,57.5365859 41.2089703,57.6470615 C47.6684252,58.3118947 62.7065652,59.8589486 80.0963698,56.0996116 C99.8641708,51.8265038 116.727731,42.1092076 130.39344,27.2252977 L129.504488,33.7837451 C129.292842,35.3448559 130.198425,36.7679713 131.548286,37.0516836 C131.604316,37.0633647 131.661534,37.073264 131.719345,37.0811834 C133.160675,37.2756045 134.506972,36.116403 134.728715,34.492531 L137.862816,11.3857149 L116.937002,21.2166544" id="Fill-28" fill="#E2EBFF"></path>
                        <path d="M191.26528,141.021758 C195.692222,132.42268 203.926413,126.360185 213.491063,125.277406 L214.154312,83.2275935 C186.67401,83.2568952 162.393144,100.414463 151.327768,125.848592 L191.26528,141.021758" id="Fill-29" fill="#6F3EEA"></path>
                        <path d="M244.244055,159.724796 C241.994947,173.532262 230.684071,184.381834 216.819189,184.853038 C212.683285,184.993607 208.731506,184.195728 205.14402,182.639567 L183.476554,219.914181 C193.550025,224.966756 204.926237,227.439587 216.819189,226.677345 C251.373491,224.461894 278.50732,195.554121 281.51867,160.760257 L244.244055,159.724796" id="Fill-30" fill="#1A0F90"></path>
                        <path d="M176.689632,215.992101 L198.563003,178.604635 C192.021582,173.217466 187.818363,164.838746 187.818363,155.337451 C187.818363,153.042806 188.065844,150.805577 188.533088,148.651501 L148.439169,133.663847 C146.283113,140.674888 145.118962,148.136741 145.118962,155.86805 C145.118962,181.471456 157.770196,203.517073 176.689632,215.992101" id="Fill-31" fill="#91B3FA"></path>
                        <path d="M221.060025,125.473807 C233.683542,127.585513 243.386781,138.478048 244.539053,151.920232 L305.460982,153.961456 C305.460982,153.933738 305.462962,153.90404 305.462962,153.876322 C305.462962,104.159942 269.869239,61.5033058 222.152902,55.8696458 L221.060025,125.473807" id="Fill-32" fill="#44B223"></path>
                        <path d="M48.3225673,280.632186 C48.3243491,280.509436 48.3162317,280.384705 48.2845542,280.259975 C46.4227043,272.877118 37.1809678,268.279909 37.1809678,268.279909 L34.8140584,268.464035 C34.020139,268.52739 33.3479804,269.081748 33.1254453,269.84597 C31.4023829,275.763738 31.7227224,279.384882 32.0488035,280.97668 L32.0590987,280.986579 C35.0799521,281.255839 41.2980635,281.432045 48.3225673,280.632186" id="Fill-33" fill="#333435"></path>
                        <path d="M32.0596927,280.986579 C32.2228322,281.580534 32.6609728,282.041839 33.221864,282.16063 C37.5191259,283.063441 44.3492086,282.336836 47.2170196,281.960665 C47.8495814,281.879491 48.3120741,281.293456 48.3225673,280.632186 C41.2984594,281.432045 35.0805461,281.255839 32.0596927,280.986579" id="Fill-34" fill="#333435"></path>
                        <g id="Group-37" transform="translate(33.459446, 261.679093)">
                            <mask id="mask-49" fill="white">
                                <use xlink:href="#path-48"></use>
                            </mask>
                            <g id="Clip-36"></g>
                            <path d="M2.04063023,0.0772141058 L0.137797481,8.89942065 C0.272229219,9.54485139 0.768775315,10.0299144 1.37045139,10.0853501 C2.10695516,10.1546448 3.15528514,10.1962217 4.20955466,10.0398136 C5.15493249,9.90122418 5.81343023,8.94099748 5.64573703,7.90949622 L8.10728312,0.0772141058 L2.04063023,0.0772141058" id="Fill-35" fill="#FEAAA7" mask="url(#mask-49)"></path>
                        </g>
                        <path d="M99.7762655,241.534131 C96.1590816,241.433159 94.2883224,241.007491 93.3209683,240.611521 C93.3187904,240.971854 93.3209683,241.338126 93.3326494,241.716277 C93.3451224,242.122146 93.6450695,242.444861 94.0141134,242.442882 L113.874373,242.314191 C114.508321,242.310232 114.878751,241.575708 114.604146,240.993632 C112.00005,241.209436 105.367755,241.690539 99.7762655,241.534131" id="Fill-38" fill="#333435"></path>
                        <path d="M114.605729,240.993632 L114.615827,240.971854 C112.928006,238.566338 108.460279,233.55138 99.4769123,231.397305 L96.1776922,231.292373 C95.5805698,231.274554 95.040863,231.628947 94.8145662,232.183305 C94.2560509,233.547421 93.3457164,236.410282 93.3209683,240.611521 C94.2883224,241.007491 96.1590816,241.433159 99.7762655,241.534131 C105.369141,241.690539 112.002822,241.209436 114.605729,240.993632" id="Fill-39" fill="#333435"></path>
                        <g id="Group-42" transform="translate(95.824685, 225.249874)">
                            <mask id="mask-51" fill="white">
                                <use xlink:href="#path-50"></use>
                            </mask>
                            <g id="Clip-41"></g>
                            <path d="M1.24176121,0.0059395466 C1.20176826,0.322715365 0.465858438,5.09811083 0.179968262,6.94926952 C0.112059446,7.38879597 0.328060957,7.80456423 0.703638287,7.96097229 C1.37460907,8.23815113 2.4771869,8.62818136 3.51660756,8.70341562 C4.07730076,8.74301259 4.60394055,8.34110327 4.77004987,7.74912846 L6.80295869,0.496942065 L1.24176121,0.0059395466" id="Fill-40" fill="#FEAAA7" mask="url(#mask-51)"></path>
                        </g>
                        <path d="M56.1883088,176.001134 C56.1883088,176.001134 51.4461748,183.11473 49.8654635,193.390146 C48.4112645,202.841945 36.0213703,255.917733 34.0488469,264.34595 C33.8987743,264.987421 34.3034554,265.617013 34.9457184,265.763521 C36.1611476,266.036741 38.1112987,266.399053 39.7100267,266.335698 C40.5601738,266.30006 41.3121204,265.77738 41.6494866,264.99534 L71.2050665,196.551965 C71.2050665,196.551965 90.8606101,192.764514 98.0773572,201.293703 C102.407287,206.411612 99.5592741,215.421904 95.7062902,228.166191 C95.7062902,228.166191 100.448424,230.536071 103.609847,228.956151 C103.609847,228.956151 118.34507,205.926549 112.303759,191.808247 C109.507223,185.274746 97.4356882,178.832317 85.4314685,177.583033 L56.1883088,176.001134" id="Fill-43" fill="#6F3EEA"></path>
                        <path d="M56.1883088,176.001134 L63.3015098,112.773274 C63.3015098,112.773274 94.1255788,112.773274 113.884471,123.838253 L88.307397,177.185083 C86.9355597,180.045965 84.0467622,181.881285 80.8732625,181.867426 C75.4516443,181.841688 66.4207617,180.873542 56.1883088,176.001134" id="Fill-44" fill="#44B223"></path>
                        <path d="M139.571426,106.845607 C139.571426,106.845607 137.595537,126.999676 113.884471,123.838253 C113.884471,123.838253 104.783501,133.876879 104.591852,142.68879 C104.591852,142.68879 147.870952,153.872363 143.919174,108.821496 L139.571426,106.845607" id="Fill-45" fill="#44B223"></path>
                        <g id="Group-48" transform="translate(52.663980, 163.874559)">
                            <mask id="mask-53" fill="white">
                                <use xlink:href="#path-52"></use>
                            </mask>
                            <g id="Clip-47"></g>
                            <path d="M0.362906297,5.01495718 C0.362906297,5.01495718 3.52432897,-0.518720403 8.26646297,0.271239295 C13.008597,1.06317884 15.379664,5.80491688 15.379664,5.80491688 C15.379664,5.80491688 10.63753,8.17479597 7.4761073,9.75669521 C4.31468463,11.3366146 -1.21780504,9.75669521 0.362906297,5.01495718" id="Fill-46" fill="#FEAAA7" mask="url(#mask-53)"></path>
                        </g>
                        <path d="M62.5111542,132.532166 C62.5111542,132.532166 22.2028171,150.710544 53.0268861,168.889516 L53.6948872,172.831395 C53.6948872,172.831395 29.1839622,176.389184 28.1304846,147.944695 C27.340129,126.604498 63.3015098,112.773274 63.3015098,112.773274 L62.5111542,132.532166" id="Fill-49" fill="#44B223"></path>
                        <g id="Group-52" transform="translate(82.559698, 100.915365)">
                            <mask id="mask-55" fill="white">
                                <use xlink:href="#path-54"></use>
                            </mask>
                            <g id="Clip-51"></g>
                            <path d="M5.8649063,2.36809723 L0.0572176322,14.7872932 C0.0572176322,14.7872932 6.52340403,19.5258635 13.100066,17.6731209 L14.7962025,0.0409828715 L5.8649063,2.36809723" id="Fill-50" fill="#FEAAA7" mask="url(#mask-55)"></path>
                        </g>
                        <g id="Group-55" transform="translate(91.073048, 88.442317)">
                            <mask id="mask-57" fill="white">
                                <use xlink:href="#path-56"></use>
                            </mask>
                            <g id="Clip-54"></g>
                            <path d="M11.6581421,1.32610277 C11.7777249,1.55002368 14.2212544,18.1459088 14.2212544,18.1459088 L4.71540605,19.3395597 L0.0627612091,3.95395617 C0.0627612091,3.95395617 9.65631688,-2.42016725 11.6581421,1.32610277" id="Fill-53" fill="url(#linearGradient-58)" mask="url(#mask-57)"></path>
                        </g>
                        <path d="M94.6377657,93.9583743 C94.3647446,94.2866332 94.2588227,94.7198242 94.3500937,95.1367804 L96.1388872,103.308013 C96.1660111,103.431951 96.2083798,103.550148 96.2687652,103.661614 C96.6019738,104.276951 97.8203728,106.150482 99.7069708,104.793691 C101.315004,103.637261 102.8088,102.596455 104.101641,102.395104 C104.856558,102.277501 105.557424,102.810477 105.66592,103.566977 C105.889445,105.12492 106.276703,108.277631 106.227405,111.12703 C106.21513,111.841161 105.648893,112.421851 104.93595,112.464616 C103.054301,112.577863 99.3735642,112.688932 96.3348922,112.111807 C95.8357723,112.01717 95.4312892,111.656837 95.2784448,111.172368 C94.6054942,109.040269 92.6949401,103.071817 91.896467,101.469921 C91.1546176,99.9816685 88.9528277,99.7072615 87.9343935,99.661329 C87.547927,99.6439063 87.1889804,99.4686897 86.9387275,99.1738902 C86.1875728,98.2890957 85.019462,96.3225118 87.3289557,94.4367058 C87.9033098,93.9678776 87.979336,93.111395 87.5223869,92.5275375 C86.7037194,91.4815834 85.9996851,89.7987118 87.7952101,88.0617904 C89.6129093,86.3034866 91.6430463,86.7742947 92.9265824,87.3886418 C93.494601,87.660673 94.2006151,87.5523753 94.6138096,87.0772116 C94.7975395,86.8657637 95.0677889,86.7240065 95.4651446,86.7737008 C96.2149134,86.8677436 96.8914277,86.3810967 96.9904202,85.6321199 C97.1598952,84.3477919 97.8647214,82.8427108 100.144517,82.4328821 C104.325562,81.6813315 106.351542,85.8823728 106.238888,88.8151229 C106.126235,91.7476751 101.546646,92.3048045 98.9595778,91.7839063 C97.0591209,91.4013995 95.3899103,93.0539793 94.6377657,93.9583743" id="Fill-56" fill="#333435"></path>
                        <g id="Group-59" transform="translate(87.113350, 98.737531)">
                            <mask id="mask-60" fill="white">
                                <use xlink:href="#path-59"></use>
                            </mask>
                            <g id="Clip-58"></g>
                            <path d="M5.47408413,5.74472947 C5.47408413,5.74472947 5.45111788,0.626226196 3.3863335,0.118592947 C1.32135113,-0.389238287 -0.932706801,1.07901763 0.798671033,4.16599798 C2.95235063,8.00571688 5.47408413,5.74472947 5.47408413,5.74472947" id="Fill-57" fill="#FEAAA7" mask="url(#mask-60)"></path>
                        </g>
                        <polyline id="Fill-60" fill="#0C0369" points="107.166447 94.1997179 172.765572 83.9250942 171.975612 104.47454 107.166447 98.9418519 107.166447 94.1997179"></polyline>
                        <path d="M170.512504,83.2028453 C170.16603,87.2712368 170.506564,100.077691 170.69861,104.297937 C170.732267,105.061763 171.359879,105.660073 172.126081,105.660073 L173.236776,105.660073 C174.105929,105.660073 174.850353,105.029095 174.988942,104.172019 C176.214469,96.6123617 176.838121,89.5045063 176.418393,83.181265 C176.372856,82.4845562 175.782861,81.949205 175.083975,81.949205 L171.884539,81.949205 C171.169814,81.949205 170.573879,82.4906937 170.512504,83.2028453" id="Fill-61" fill="#1A0F90"></path>
                        <path d="M108.41692,93.0141844 L106.478846,93.0141844 C106.169395,93.0141844 105.906274,93.2307798 105.839949,93.5331028 C105.418241,95.4529622 105.733829,98.3518569 105.897958,99.5639204 C105.941713,99.8868338 106.215922,100.127583 106.541805,100.127583 L107.770697,100.127583 C108.101728,100.127583 108.379699,99.8787164 108.416128,99.5498635 L109.062153,93.7354433 C109.104917,93.3507587 108.803782,93.0141844 108.41692,93.0141844" id="Fill-62" fill="#1A0F90"></path>
                        <g id="Group-65" transform="translate(139.381360, 96.559698)">
                            <mask id="mask-62" fill="white">
                                <use xlink:href="#path-61"></use>
                            </mask>
                            <g id="Clip-64"></g>
                            <path d="M0.190065491,10.2859088 C0.190065491,10.2859088 0.548418136,5.70929018 1.16019144,5.23115668 C1.76998489,4.75322116 6.51370277,0.0112851385 7.30366247,0.0112851385 C8.09362217,0.0112851385 8.88358186,1.59199647 7.30366247,2.38215416 C5.72176322,3.17250982 5.32975315,5.58733149 5.32975315,5.58733149 L9.61810579,5.95340554 C9.61810579,5.95340554 6.51370277,11.8666202 4.93180353,12.6569758 C3.35188413,13.4473315 0.190065491,10.2859088 0.190065491,10.2859088" id="Fill-63" fill="#FEAAA7" mask="url(#mask-62)"></path>
                        </g>
                    </g>
                </g>
            </g>
        </g>
    </g>
</svg>