<?xml version="1.0" encoding="UTF-8"?>
<svg width="24px" height="24px" viewBox="0 0 24 24" version="1.1" xmlns="http://www.w3.org/2000/svg" xmlns:xlink="http://www.w3.org/1999/xlink">
    <!-- Generator: Sketch 50.2 (55047) - http://www.bohemiancoding.com/sketch -->
    <title>internet</title>
    <desc>Created with Sketch.</desc>
    <defs></defs>
    <g id="Page-1" stroke="none" stroke-width="1" fill="none" fill-rule="evenodd">
        <g id="20943798" transform="translate(-14128.000000, -2365.000000)" fill="#B1BFCC" fill-rule="nonzero">
            <g id="internet" transform="translate(14128.000000, 2365.000000)">
                <path d="M20.4852905,3.51470948 C18.218811,1.24822997 15.2054443,0 12.0001831,0 L11.9998169,0 C8.79455569,0 5.78118895,1.24822997 3.51470948,3.51470948 C1.24822997,5.78118895 -2.84217094e-14,8.79473878 -2.84217094e-14,12 C-2.84217094e-14,15.2052612 1.24822997,18.218811 3.51470948,20.4852905 C5.78118895,22.75177 8.79473878,24 12,24 C15.2052612,24 18.218811,22.75177 20.4852905,20.4852905 C22.75177,18.218811 24,15.2052612 24,12 C24,8.79473878 22.75177,5.78118895 20.4852905,3.51470948 Z M21.2691651,17.1242065 L17.757019,17.1242065 C18.2276001,15.7454224 18.5110474,14.2525635 18.5771484,12.703125 L22.5697632,12.703125 C22.4648437,14.2983398 22.005249,15.7979737 21.2691651,17.1242065 Z M12,22.4897461 C10.5032959,21.5991211 9.26202394,20.218689 8.36920167,18.5304565 L15.6307983,18.5304565 C14.7379761,20.218689 13.4967041,21.5991211 12,22.4897461 Z M7.73364258,17.1242065 C7.21655273,15.7675781 6.90307617,14.2695923 6.83056641,12.703125 L17.1694336,12.703125 C17.0969238,14.2695923 16.7832642,15.7675781 16.2661743,17.1242065 L7.73364258,17.1242065 Z M1.43023683,12.703125 L5.42285156,12.703125 C5.48895262,14.2525635 5.77239989,15.7454224 6.24298097,17.1242065 L2.73083494,17.1242065 C1.994751,15.7979737 1.53515625,14.2983398 1.43023683,12.703125 Z M2.73083494,6.87579347 L6.24298097,6.87579347 C5.77239989,8.25457762 5.48895262,9.7474365 5.42285156,11.296875 L1.43023683,11.296875 C1.53515625,9.70166016 1.994751,8.20202634 2.73083494,6.87579347 Z M12,1.51025391 C13.4967041,2.40087891 14.7379761,3.78131105 15.6307983,5.46954347 L8.36920167,5.46954347 C9.26202394,3.78131105 10.5032959,2.40087891 12,1.51025391 Z M16.2663574,6.87579347 C16.7834473,8.23242188 17.0969238,9.7304077 17.1694336,11.296875 L6.83056641,11.296875 C6.90307617,9.7304077 7.21673583,8.23242188 7.73382567,6.87579347 L16.2663574,6.87579347 Z M22.5697632,11.296875 L18.5771484,11.296875 C18.5110474,9.7474365 18.2276001,8.25457762 17.757019,6.87579347 L21.2691651,6.87579347 C22.005249,8.20202634 22.4648437,9.70166016 22.5697632,11.296875 Z M17.1939697,5.46954347 C16.5256348,4.02593995 15.6364746,2.75024414 14.5689697,1.72192383 C16.8859863,2.30126953 18.9036255,3.64508058 20.3360596,5.46954347 L17.1939697,5.46954347 Z M9.43103025,1.72192383 C8.36352539,2.75024414 7.47436523,4.02593995 6.80603025,5.46954347 L3.66394041,5.46954347 C5.0963745,3.64508058 7.11401367,2.30126953 9.43103025,1.72192383 Z M6.80603025,18.5304565 C7.47436523,19.97406 8.36352539,21.2497559 9.43103025,22.2780762 C7.11401367,21.6987305 5.0963745,20.3549194 3.66394041,18.5304565 L6.80603025,18.5304565 Z M14.5689697,22.2780762 C15.6364746,21.2497559 16.5256348,19.973877 17.1939697,18.5304565 L20.3360596,18.5304565 C18.9036255,20.3549194 16.8859863,21.6987305 14.5689697,22.2780762 Z" id="Shape"></path>
            </g>
        </g>
    </g>
</svg>