<?xml version="1.0" encoding="UTF-8"?>
<svg width="80px" height="87px" viewBox="0 0 80 87" version="1.1" xmlns="http://www.w3.org/2000/svg" xmlns:xlink="http://www.w3.org/1999/xlink">
    <!-- Generator: Sketch 50.2 (55047) - http://www.bohemiancoding.com/sketch -->
    <title>starred</title>
    <desc>Created with Sketch.</desc>
    <defs></defs>
    <g id="Page-1" stroke="none" stroke-width="1" fill="none" fill-rule="evenodd">
        <g id="20943798" transform="translate(-14751.000000, -1629.000000)">
            <g id="starred" transform="translate(14751.000000, 1629.000000)">
                <circle id="Oval" fill="#EBE7F8" cx="40" cy="40" r="40"></circle>
                <path d="M64.29248,86.44 C64.0416,86.44 63.79072,86.36576 63.57312,86.21984 L54.8,80.24992 L46.02688,86.21984 C45.58656,86.51936 45.008,86.51424 44.5728,86.2096 C44.1376,85.90496 43.93536,85.36224 44.06592,84.84768 L46.78208,74.1264 L38.61056,67.14784 C38.21376,66.80736 38.06272,66.25952 38.22912,65.76544 C38.39552,65.27136 38.84608,64.92576 39.36832,64.8976 L49.8208,64.30624 L53.60192,54.00224 C53.97312,52.9936 55.63456,52.9936 56.0032,54.00224 L59.78432,64.30624 L70.2368,64.8976 C70.75904,64.92576 71.2096,65.27136 71.376,65.76544 C71.5424,66.25952 71.39136,66.80736 70.99456,67.14784 L62.82304,74.1264 L65.5392,84.84768 C65.66976,85.36224 65.46752,85.90496 65.03232,86.2096 C64.80704,86.3632 64.55104,86.44 64.29248,86.44 Z M54.8,77.42112 C55.05088,77.42112 55.30176,77.49536 55.51936,77.64128 L62.224,82.2032 L60.14272,73.98304 C60.02496,73.512 60.18368,73.0128 60.55232,72.69536 L66.90368,67.27072 L58.79616,66.80992 C58.28672,66.78176 57.84128,66.45152 57.6672,65.9728 L54.8,58.15456 L51.9328,65.9728 C51.75872,66.45152 51.31328,66.7792 50.80384,66.80992 L42.69632,67.27072 L49.04768,72.69536 C49.41888,73.0128 49.5776,73.512 49.45728,73.98304 L47.376,82.2032 L54.08064,77.64128 C54.29824,77.4928 54.54912,77.42112 54.8,77.42112 Z" id="Shape" fill="#6F3EEA" fill-rule="nonzero"></path>
                <path d="M34.32,63.4 L18.96,63.4 C18.25344,63.4 17.68,62.82656 17.68,62.12 C17.68,61.41344 18.25344,60.84 18.96,60.84 L34.32,60.84 C35.02656,60.84 35.6,61.41344 35.6,62.12 C35.6,62.82656 35.02656,63.4 34.32,63.4 Z" id="Shape" fill="#6F3EEA" fill-rule="nonzero"></path>
                <path d="M34.32,71.08 L18.96,71.08 C18.25344,71.08 17.68,70.50656 17.68,69.8 C17.68,69.09344 18.25344,68.52 18.96,68.52 L34.32,68.52 C35.02656,68.52 35.6,69.09344 35.6,69.8 C35.6,70.50656 35.02656,71.08 34.32,71.08 Z" id="Shape" fill="#6F3EEA" fill-rule="nonzero"></path>
                <path d="M31.76,42.92 C28.93632,42.92 26.64,40.62368 26.64,37.8 C26.64,34.97632 28.93632,32.68 31.76,32.68 C34.58368,32.68 36.88,34.97632 36.88,37.8 C36.88,40.62368 34.58368,42.92 31.76,42.92 Z M31.76,35.24 C30.34944,35.24 29.2,36.38944 29.2,37.8 C29.2,39.21056 30.34944,40.36 31.76,40.36 C33.17056,40.36 34.32,39.21056 34.32,37.8 C34.32,36.38944 33.17056,35.24 31.76,35.24 Z" id="Shape" fill="#6F3EEA" fill-rule="nonzero"></path>
                <path d="M40.72,55.72 C40.01344,55.72 39.44,55.14656 39.44,54.44 L39.44,51.88 C39.44,49.76288 37.71712,48.04 35.6,48.04 L27.92,48.04 C25.80288,48.04 24.08,49.76288 24.08,51.88 L24.08,54.44 C24.08,55.14656 23.50656,55.72 22.8,55.72 C22.09344,55.72 21.52,55.14656 21.52,54.44 L21.52,51.88 C21.52,48.35232 24.39232,45.48 27.92,45.48 L35.6,45.48 C39.12768,45.48 42,48.35232 42,51.88 L42,54.44 C42,55.14656 41.42656,55.72 40.72,55.72 Z" id="Shape" fill="#6F3EEA" fill-rule="nonzero"></path>
                <path d="M36.88,78.76 L16.4,78.76 C12.87232,78.76 10,75.88768 10,72.36 L10,31.4 C10,27.87232 12.87232,25 16.4,25 L47.12,25 C50.64768,25 53.52,27.87232 53.52,31.4 L53.52,46.76 C53.52,47.46656 52.94656,48.04 52.24,48.04 C51.53344,48.04 50.96,47.46656 50.96,46.76 L50.96,31.4 C50.96,29.28288 49.23712,27.56 47.12,27.56 L16.4,27.56 C14.28288,27.56 12.56,29.28288 12.56,31.4 L12.56,72.36 C12.56,74.47712 14.28288,76.2 16.4,76.2 L36.88,76.2 C37.58656,76.2 38.16,76.77344 38.16,77.48 C38.16,78.18656 37.58656,78.76 36.88,78.76 Z" id="Shape" fill="#6F3EEA" fill-rule="nonzero"></path>
            </g>
        </g>
    </g>
</svg>